<svg width="1920" height="848" viewBox="0 0 1920 848" fill="none" xmlns="http://www.w3.org/2000/svg">
<path d="M1920 325.083V848H0V628.964L1920 325.083Z" fill="#F5F5F7"/>
<path fill-rule="evenodd" clip-rule="evenodd" d="M1544.74 39.8212C1544.49 42.9402 1545.7 45.7192 1547.88 46.7082C1549.76 47.5632 1552.02 47.4981 1553.84 46.4651C1554.46 48.2131 1555.81 49.5362 1557.42 50.0792C1559.22 50.6812 1561.33 50.2771 1562.91 48.8351C1563.61 49.9331 1564 50.9881 1563.92 51.9551C1563.82 53.2621 1563.12 54.5361 1561.95 55.6191C1561.24 56.2711 1561.54 57.4452 1562.47 57.6852C1565.31 58.4151 1568.2 57.6191 1570.41 55.7751C1570.12 57.1471 1570.11 58.7592 1570.39 59.9322C1570.94 62.3202 1573.4 64.5091 1576.34 64.9681C1574.77 67.5461 1574.38 69.2352 1575.51 71.5452C1576.58 73.7422 1579.53 74.5951 1582.32 73.6411C1581.36 75.9591 1583.27 76.0962 1584.68 74.7302C1585.42 74.0152 1586.99 72.5651 1588.82 73.1801C1589.93 73.5561 1592.75 75.5111 1592.87 77.0641C1593.15 80.6791 1591.58 85.2171 1589.32 88.0901C1587.5 90.4041 1584.64 90.1392 1583.38 90.2332C1582.12 90.3282 1580.64 89.3891 1578.93 89.0241C1578.51 88.9341 1578.09 89.0262 1577.75 89.2472C1577.72 89.2492 1577.68 89.2521 1577.65 89.2581C1577.49 89.2951 1577.34 89.3621 1577.21 89.4561C1577.09 89.5501 1576.98 89.6681 1576.89 89.8041C1573.81 94.8381 1571.42 99.9632 1567.61 104.359C1564.94 107.431 1562.72 110.718 1554.96 111.304C1550.22 111.662 1544.6 109.402 1539.05 108.236C1536.28 107.654 1533.5 107.353 1530.82 107.95C1528.13 108.547 1525.59 110.093 1523.49 112.925C1523.41 113.026 1523.35 113.138 1523.31 113.258C1522.39 112.357 1521.42 111.057 1520.08 108.916C1517.03 104.036 1513.79 97.2661 1512.05 90.9691C1510.31 84.6731 1509.7 78.7082 1510.44 76.0662C1511.04 73.8912 1511.28 72.1752 1510.9 69.8542C1510.44 67.0232 1510.45 64.3142 1510.84 61.6992C1514.54 59.8312 1517.94 58.4882 1522.48 59.3932C1525.55 60.0042 1525.94 55.3932 1522.87 54.9272C1522.06 54.8062 1521.3 54.7262 1520.58 54.6852C1518.74 52.6201 1519.76 49.8722 1521.76 49.2502C1523.97 48.5582 1525.25 46.8941 1525.67 45.2321C1525.84 44.5621 1525.83 43.9142 1525.81 43.2802C1525.91 43.3012 1526 43.3542 1526.11 43.3682C1526.81 43.4582 1527.58 43.3842 1528.31 43.0882C1529.25 44.2082 1530.61 45.2162 1532.43 45.9872C1533.64 46.5022 1534.28 47.1052 1534.63 47.6772C1534.97 48.2492 1535.05 48.8351 1534.94 49.4821C1534.74 50.7751 1533.6 52.2172 1532.75 52.7042C1531.58 53.3752 1532.21 55.1721 1533.55 54.9551C1537.88 54.2521 1541.05 52.7382 1542.9 50.4502C1544.75 48.1622 1545.11 45.6591 1544.02 42.6241C1543.68 41.5871 1543.3 39.9662 1544.74 39.8212ZM1542.74 53.4551C1544.53 52.9031 1546.32 52.6542 1548.09 52.6642C1551.97 52.6862 1555.73 53.9631 1559.09 56.0371C1561.04 57.2441 1562.15 60.2251 1558.83 59.2051C1553.86 57.6741 1548.71 56.8901 1543.3 57.8571C1539.76 58.4921 1539.32 54.5091 1542.74 53.4551ZM1526.91 61.3942C1526.84 60.5722 1527.22 59.9172 1527.65 59.9102C1528.04 59.9042 1528.48 60.4011 1528.71 61.7351C1529.01 63.5051 1528.51 65.1002 1527.55 66.7592C1525.66 70.0162 1523.79 74.1082 1523.31 77.6682C1523.25 78.1272 1523.28 79.3162 1523.6 80.3642C1523.92 81.4132 1524.45 82.3271 1525.24 82.6751C1527.01 83.4661 1526.45 84.8022 1524.28 83.9072C1523.27 83.4902 1521.79 82.0101 1521.42 80.8401C1520.97 79.4231 1520.97 77.9642 1521.1 77.0062C1521.45 74.4002 1522.37 71.8132 1523.52 69.4762C1522.92 68.5832 1521.92 67.6842 1520.82 67.0272C1520.85 67.1922 1520.86 67.3592 1520.86 67.5262C1520.86 67.9462 1520.77 68.3632 1520.6 68.7512C1520.43 69.1402 1520.18 69.4932 1519.86 69.7902C1519.55 70.0882 1519.17 70.3241 1518.76 70.4851C1518.35 70.6451 1517.9 70.7281 1517.46 70.7281C1516.8 70.7281 1516.15 70.5461 1515.59 70.2051C1515.04 69.8631 1514.6 69.3782 1514.34 68.8072C1514.27 69.0282 1514.2 69.2671 1514.14 69.5241C1514.1 69.6791 1514.03 69.8252 1513.94 69.9542C1513.84 70.0832 1513.73 70.1932 1513.59 70.2762C1513.45 70.3592 1513.3 70.4152 1513.15 70.4402C1512.99 70.4652 1512.83 70.4581 1512.67 70.4211C1512.52 70.3841 1512.37 70.3161 1512.24 70.2221C1512.11 70.1291 1512 70.0101 1511.92 69.8741C1511.84 69.7381 1511.78 69.5871 1511.76 69.4301C1511.73 69.2721 1511.74 69.1111 1511.78 68.9561C1512.27 66.9051 1513.21 65.4142 1514.49 64.5362C1515.76 63.6582 1517.28 63.4552 1518.7 63.6692C1521.06 64.0252 1523.27 65.3951 1524.78 67.1371C1525.5 65.9291 1526.24 64.8271 1526.96 63.8741C1527.28 63.4511 1526.97 62.1522 1526.91 61.3942ZM1545.75 61.8731C1546.06 61.8381 1546.38 61.8202 1546.7 61.8202C1547.24 61.8182 1547.78 61.8612 1548.32 61.9442C1551.78 62.4732 1555.38 64.5742 1558.3 67.4842C1558.42 67.5962 1558.5 67.7302 1558.57 67.8772C1558.63 68.0252 1558.66 68.1822 1558.66 68.3422C1558.66 68.5012 1558.63 68.6592 1558.57 68.8062C1558.5 68.9542 1558.42 69.0872 1558.3 69.2002C1558.08 69.4282 1557.77 69.5562 1557.45 69.5572C1557.12 69.5582 1556.82 69.4321 1556.59 69.2051C1554.63 67.2581 1552.31 65.7431 1550.12 64.9261C1550.19 65.1801 1550.23 65.4412 1550.23 65.7032C1550.23 66.5522 1549.83 67.3662 1549.11 67.9672C1548.39 68.5672 1547.41 68.9052 1546.39 68.9052C1545.48 68.9042 1544.61 68.6392 1543.92 68.1552C1543.23 67.6702 1542.76 66.9991 1542.6 66.2571C1542.37 66.5841 1542.16 66.9592 1541.97 67.3922C1541.84 67.6862 1541.6 67.9171 1541.3 68.0331C1541 68.1501 1540.67 68.1432 1540.37 68.0132C1540.23 67.9492 1540.09 67.8572 1539.98 67.7422C1539.87 67.6272 1539.79 67.4911 1539.73 67.3431C1539.67 67.1941 1539.64 67.0362 1539.65 66.8762C1539.65 66.7172 1539.69 66.5602 1539.75 66.4142C1540.56 64.5842 1541.82 63.2692 1543.34 62.5452C1544.1 62.1822 1544.91 61.9661 1545.75 61.8731ZM1530.43 80.8362C1530.54 80.6371 1530.81 80.5451 1531.13 80.5461C1532.11 80.5481 1533.66 81.3791 1533.48 82.6191C1533.35 83.6021 1532.05 83.2942 1531.51 82.8632C1530.96 82.4222 1529.93 81.6742 1530.43 80.8362ZM1522.41 95.5862C1526.08 93.2032 1529.62 92.5002 1532.94 92.5192C1533.17 92.5202 1533.39 92.5252 1533.61 92.5322C1537.12 92.6492 1540.38 93.5142 1543.29 93.9632C1543.44 93.9872 1543.54 94.0992 1543.67 94.1812C1543.81 94.2642 1543.99 94.3162 1544.08 94.4452C1544.18 94.5742 1543.7 94.4001 1543.74 94.5541C1543.78 94.7091 1543.79 94.8702 1543.76 95.0282C1543.74 95.1852 1543.68 95.3361 1543.6 95.4731C1543.52 95.6091 1543.85 95.5362 1543.72 95.6302C1543.59 95.7242 1543.44 95.7921 1543.29 95.8301C1543.13 95.8671 1542.97 95.8742 1542.82 95.8502C1538.45 95.1762 1534.2 94.0821 1529.62 95.0971C1527.73 95.5171 1525.68 96.0272 1523.65 97.3502C1523.38 97.5252 1523.19 97.5401 1522.87 97.4731C1522.56 97.4061 1522.23 97.5342 1522.06 97.2642C1521.88 96.9942 1521.82 96.6661 1521.89 96.3521C1521.96 96.0371 1522.14 95.7621 1522.41 95.5862Z" fill="#F5F5F7"/>
<path d="M1525.05 84.0012C1528.7 86.8462 1535.07 84.2612 1534.84 82.7532C1534.18 78.3112 1527.27 76.8472 1522.72 79.8742" fill="#C5C5DA"/>
<path d="M1541.03 55.7491C1540.06 55.6351 1538.89 56.1961 1538.41 57.1111C1536.66 60.4561 1538.44 68.5351 1541.71 65.7921L1544.56 63.3041L1552.07 64.0282L1557.81 68.4621C1561.64 68.5421 1561.97 60.5741 1560.16 58.5081L1541.03 55.7491Z" fill="#C5C5DA"/>
<path d="M1524.63 57.3322C1526.05 58.1012 1527.42 59.9142 1527.75 61.2462L1527.73 65.0232L1525.24 68.8242L1519.69 64.9551L1515.51 65.4981L1512.64 69.5022C1510.86 68.9422 1510.01 67.1232 1509.98 64.8772L1510.62 59.9112L1516.69 57.9202L1524.63 57.3322Z" fill="#C5C5DA"/>
<path d="M1531.37 1.36721C1531.28 1.36521 1531.18 1.3692 1531.08 1.3772C1527.29 1.8202 1524.64 3.9532 1523.72 6.7212C1523.27 8.0682 1523.22 9.51721 1523.51 10.9492C1521.52 10.4452 1518.53 9.7742 1516.56 10.4712C1513.44 11.5802 1511.37 14.7722 1511.32 19.1582C1507.36 18.2372 1503.38 20.3442 1501.66 22.9982C1500.18 25.2872 1500.71 28.8732 1501.8 31.6032C1498.39 32.0162 1497.01 33.4242 1496.46 36.7602C1496.06 39.4602 1497.44 42.4342 1500.45 44.1092C1499.43 44.6412 1498.43 44.9242 1497.53 44.7992C1496.04 44.5902 1494.72 43.6322 1493.97 41.7482C1493.41 40.3512 1491.4 40.4682 1491.01 41.9202C1490.04 45.5222 1490.27 48.8872 1491.82 51.3632C1492.84 52.9832 1494.51 54.0292 1496.49 54.4282C1494.91 57.9822 1495 61.4122 1497 65.0272C1498.84 68.3322 1504.14 70.1382 1508.01 68.2852C1508.08 68.9722 1508.16 69.6622 1508.28 70.3572C1508.46 71.1372 1509.09 66.0192 1510.9 69.8532C1510.44 67.0232 1510.44 64.3132 1510.84 61.6992C1514.54 59.8302 1517.94 58.4882 1522.48 59.3922C1525.55 60.0042 1525.94 55.3932 1522.87 54.9282C1522.06 54.8062 1521.3 54.7262 1520.58 54.6852C1518.74 52.6202 1519.76 49.8732 1521.76 49.2502C1523.97 48.5582 1525.25 46.8942 1525.67 45.2322C1525.84 44.5622 1525.83 43.9132 1525.81 43.2792C1525.91 43.3002 1526 43.3552 1526.11 43.3692C1526.81 43.4592 1527.58 43.3842 1528.31 43.0882C1529.25 44.2072 1530.61 45.2172 1532.43 45.9882C1533.64 46.5032 1534.28 47.1052 1534.63 47.6782C1534.97 48.2502 1535.05 48.8352 1534.94 49.4822C1534.74 50.7762 1533.6 52.2162 1532.75 52.7032C1531.58 53.3742 1532.21 55.1722 1533.55 54.9552C1537.88 54.2522 1541.05 52.7392 1542.9 50.4512C1544.75 48.1632 1545.11 45.6592 1544.02 42.6252C1543.68 41.5882 1543.3 39.9672 1544.74 39.8222C1544.49 42.9412 1545.7 45.7192 1547.88 46.7092C1549.76 47.5632 1552.02 47.4982 1553.84 46.4652C1554.46 48.2122 1555.81 49.5372 1557.42 50.0802C1559.22 50.6822 1561.33 50.2772 1562.91 48.8362C1563.61 49.9342 1564 50.9872 1563.92 51.9552C1563.82 53.2622 1563.12 54.5362 1561.95 55.6192C1561.24 56.2712 1561.54 57.4452 1562.47 57.6852C1565.31 58.4152 1568.2 57.6192 1570.41 55.7752C1570.12 57.1472 1570.11 58.7582 1570.39 59.9312C1570.94 62.3192 1573.4 64.5102 1576.34 64.9692C1574.77 67.5472 1574.38 69.2352 1575.51 71.5452C1576.58 73.7422 1579.53 74.5942 1582.32 73.6402C1581.36 75.9582 1583.27 76.0962 1584.68 74.7302C1587.46 71.8962 1591.8 74.5182 1592.1 77.5152C1592.27 79.7002 1591.98 81.8082 1591.22 83.7692C1591.22 83.7692 1592.72 84.3652 1592.56 84.6502C1599.08 84.7712 1601.23 80.4992 1601.08 75.3712C1602.72 75.3922 1604.59 75.1732 1606.37 73.9802C1607.6 73.1572 1608.66 71.3772 1609.08 69.6292C1609.33 68.5372 1609.26 67.2582 1609.01 65.8832C1613.81 66.0942 1616.68 64.4752 1617.94 61.4942C1618.66 59.7832 1618.83 58.3472 1617.15 58.8242C1614.65 59.5382 1610.07 58.5232 1610.71 54.8472C1611.87 50.8492 1611.14 47.2982 1609.06 44.8832C1607.69 43.2972 1606.25 42.2762 1604.11 41.7192C1605.66 39.6722 1606.16 37.1342 1605.39 34.9572C1603.84 32.0432 1600.39 30.5592 1597.46 31.6542C1597.53 28.7152 1596.79 25.2462 1594.58 23.4512C1593.64 22.6872 1592.51 22.1502 1591.33 21.7302C1593.72 18.7562 1594.64 11.8612 1591.63 14.5722C1590.97 15.2202 1589.59 15.9452 1588.35 16.1482C1587.12 16.3522 1586.25 16.1472 1585.73 15.4692C1584.83 14.2852 1582.53 11.7252 1579.87 11.0372C1578.07 10.5712 1575.44 11.7252 1573.33 12.9102C1573.25 8.90321 1571.77 6.9262 1568.36 5.2152C1563.54 3.4352 1561.21 4.7792 1558.3 7.5252C1556.84 5.4492 1554.68 3.37921 1552.21 3.16021C1549.17 2.89221 1545.96 4.37121 1543.99 7.49021C1540.23 5.02821 1537.46 5.86721 1534.35 8.49021C1533.58 9.13921 1532.04 9.0352 1531.51 7.8612C1530.55 5.7582 1534.18 1.42121 1531.37 1.36721ZM1529.07 4.2652C1528.86 5.6072 1528.63 8.31421 1529.26 9.41021C1530.51 11.5952 1532.96 12.2662 1535.76 10.8062C1536.85 10.1622 1538.34 8.9482 1539.65 8.7322C1540.88 8.5642 1542.13 8.78921 1543.57 9.90621C1544.39 10.5332 1545.57 10.6802 1545.97 9.7362C1547.81 4.5082 1554.72 5.06521 1556.31 8.61521C1557.59 11.4692 1558.93 11.1392 1560.27 8.9842C1560.99 7.8322 1561.87 7.2752 1562.84 7.0082C1564.09 6.6652 1565.6 6.8792 1566.99 7.5582C1568.39 8.2382 1569.62 9.3722 1570.3 10.5962C1570.76 11.4272 1571.03 12.2622 1570.91 13.1032C1570.38 16.8592 1572.26 16.9712 1574.51 15.1212C1576.22 13.7112 1577.7 13.6982 1579.09 14.0562C1580.81 14.5022 1582.39 15.9202 1582.79 16.4432C1584.18 18.2622 1586.48 18.6282 1588.4 18.3102C1589.05 18.2042 1589.64 17.9522 1590.24 17.7262C1589.87 18.7492 1589.36 19.4962 1588.66 19.9902C1587.44 20.8512 1586.99 21.2302 1585.19 21.6662V21.6782C1585.13 21.6972 1585.08 21.6942 1585.02 21.7152C1583.16 22.3802 1584 24.7112 1585.92 24.2402C1586.06 24.2062 1586.25 24.1572 1586.4 24.1232C1589.3 23.1942 1591.17 24.3332 1593.07 25.8752C1594.8 27.2762 1595.11 29.5192 1594.94 31.7152C1594.69 34.8162 1596.03 34.2662 1598.05 33.8182C1602.12 32.9382 1604.34 38.8842 1602.01 40.8902C1599.8 42.6482 1600.68 44.0242 1602.95 44.3902C1607.99 45.2022 1609.16 50.4262 1608.17 53.9822C1607.73 55.5692 1608 57.1592 1608.79 58.3342C1609.57 59.5082 1610.75 60.2892 1612.03 60.7912C1613.18 61.2432 1614.44 61.4272 1615.68 61.4432C1615.26 61.9322 1614.85 62.4452 1614.36 62.7872C1612.94 63.7722 1611.24 64.2272 1608.32 63.2582C1607.09 62.8472 1605.92 64.0452 1606.36 65.2712C1607.13 67.3852 1607.18 68.8522 1606.95 69.8302C1606.72 70.8082 1606.24 71.3832 1605.55 71.8472C1604.16 72.7772 1601.69 72.8942 1600.73 72.7242C1599.71 72.5422 1598.8 73.3882 1598.91 74.4202C1599.27 78.0072 1598.14 79.8412 1596.67 81.0022C1595.64 81.8102 1594.35 82.2232 1593.3 82.3732C1593.75 80.5492 1593.91 78.6492 1593.76 76.7322C1593.55 73.9882 1591.73 71.8592 1589.42 71.1482C1588.84 70.9712 1588.24 70.8832 1587.62 70.8892C1586.46 70.8982 1585.27 71.2342 1584.19 71.9082C1583.79 71.4982 1583.15 71.4072 1582.66 71.7242C1580.42 72.6142 1579.14 72.0622 1578.05 70.6092C1576.97 69.1562 1577.01 67.3232 1578.42 65.1132C1578.91 64.3482 1578.75 63.3682 1577.87 63.1152C1574.93 62.2592 1573.49 60.9462 1572.99 58.8812C1572.58 57.2152 1572.48 55.1732 1572.79 52.9162C1573.24 49.7352 1572.02 49.1892 1570.62 51.8792C1569.36 54.3172 1566.81 55.5882 1564.49 55.6442C1565.14 54.6202 1565.79 53.3702 1565.88 52.1482C1566.05 50.1182 1565.27 47.9572 1563.46 46.0232C1562.91 45.4342 1562.41 45.5362 1561.99 46.2262C1560.96 47.9442 1559.51 48.2202 1558.2 47.7792C1556.89 47.3392 1555.8 46.1242 1555.87 44.2422C1555.91 43.0602 1554.41 42.5212 1553.69 43.4612C1552.6 44.8932 1550.49 45.2302 1548.88 44.5002C1547.27 43.7692 1546.11 42.2362 1547 39.1192C1547.44 37.1602 1546.55 36.8112 1544.79 37.2382C1544.76 37.2452 1544.74 37.2532 1544.71 37.2622C1543.55 37.6312 1542.56 38.3392 1541.97 39.3532C1541.38 40.3682 1541.73 41.6712 1542.18 42.9222C1543.05 45.3732 1542.33 47.2972 1541.01 48.9242C1540.16 49.9722 1538.59 50.8232 1536.66 51.5312C1536.91 50.9792 1537.25 50.4812 1537.35 49.8552C1537.52 48.7522 1537.36 47.5282 1536.71 46.4332C1536.06 45.3392 1534.94 44.4162 1533.37 43.7522C1531.62 43.0092 1530.53 42.1642 1529.89 41.2932C1529.85 41.0492 1529.75 40.8202 1529.59 40.6372C1529.53 40.5802 1529.48 40.5282 1529.41 40.4822C1529.12 39.8182 1529.05 39.1562 1529.11 38.5252C1529.28 36.8042 1530.69 35.1902 1532.2 34.7752C1532.85 34.5982 1533.23 33.9322 1533.05 33.2852C1532.9 32.7392 1532.39 32.3682 1531.83 32.3922C1531.74 32.3972 1531.65 32.4112 1531.56 32.4352C1528.97 33.1432 1526.96 35.4962 1526.69 38.2932C1526.61 39.1672 1526.72 40.0712 1527.05 40.9552C1526.85 40.9902 1526.64 40.9892 1526.42 40.9612C1525.88 40.8922 1525.32 40.5962 1525.03 40.3222C1524.83 40.1322 1524.56 40.0162 1524.29 39.9962C1524.01 39.9762 1523.73 40.0522 1523.5 40.2112C1523.28 40.3702 1523.11 40.6042 1523.03 40.8712C1522.95 41.1382 1522.97 41.4232 1523.08 41.6802C1523.38 42.3862 1523.57 43.6242 1523.31 44.6372C1523.06 45.6492 1522.52 46.4682 1521.03 46.9322C1517.92 47.9012 1516.5 51.5292 1517.75 54.5842C1516.88 54.3762 1516.06 54.0212 1515.53 53.4672C1514.54 52.4482 1514.08 50.9322 1515.73 47.9592C1515.86 47.7272 1515.91 47.4582 1515.87 47.1952C1515.83 46.9322 1515.71 46.6882 1515.52 46.5022C1515.33 46.3162 1515.08 46.1992 1514.82 46.1662C1514.55 46.1332 1514.29 46.1862 1514.06 46.3202C1512.87 47.0082 1511.99 46.9812 1511.26 46.6702C1510.52 46.3582 1509.9 45.6722 1509.59 44.8342C1509.28 43.9962 1509.28 43.0542 1509.66 42.2542C1510.05 41.4542 1510.81 40.7172 1512.34 40.2952C1512.5 40.2532 1512.64 40.1822 1512.77 40.0842C1512.89 39.9862 1513 39.8632 1513.08 39.7242C1513.16 39.5862 1513.21 39.4332 1513.23 39.2752C1513.25 39.1172 1513.24 38.9562 1513.19 38.8032C1513.15 38.6492 1513.08 38.5052 1512.98 38.3792C1512.88 38.2532 1512.76 38.1492 1512.62 38.0702C1512.48 37.9912 1512.33 37.9402 1512.17 37.9202C1512.01 37.9002 1511.85 37.9132 1511.7 37.9552C1509.62 38.5252 1508.18 39.7392 1507.48 41.1992C1506.77 42.6592 1506.79 44.2862 1507.31 45.6832C1507.84 47.0812 1508.87 48.2962 1510.31 48.9042C1511 49.1972 1511.78 49.3072 1512.6 49.2522C1512.51 49.5812 1512.44 49.9042 1512.39 50.2192C1511.87 50.2562 1511.37 50.5582 1511.11 51.0642C1508.66 55.8822 1507.58 61.0492 1507.86 66.4882C1506.58 67.1442 1504.66 67.5242 1503.34 67.0332C1501.93 66.5062 1500.51 65.3752 1499.52 63.9332C1497.52 60.6062 1497.7 57.3092 1499.29 55.0142C1500.27 53.6032 1499.69 53.1562 1498.28 52.8812C1492.05 51.6602 1491.79 46.5762 1493.08 44.2852C1493.87 45.8782 1495.64 46.9882 1496.9 47.1642C1499.53 47.5292 1501.29 46.6072 1503.05 44.6892C1503.87 43.7962 1502.83 42.5962 1501.72 42.1112C1498.2 40.5772 1498.02 36.3432 1500.48 34.4472C1501.21 33.9082 1502.67 33.4682 1504.11 33.8552C1505.59 34.2692 1505.79 32.5122 1504.78 31.3792C1502.81 29.1602 1503.15 26.5232 1504.47 24.4822C1505.79 22.4422 1508.61 20.9632 1511.5 21.7012C1512.42 21.9362 1513.34 21.3032 1513.44 20.3592C1513.8 13.2662 1519.33 12.0912 1524.25 13.7712C1526.48 14.5352 1526.14 12.5542 1525.86 11.2912C1525.28 7.69921 1525.96 6.7152 1529.07 4.2652ZM1548.09 52.6642C1546.32 52.6542 1544.53 52.9042 1542.74 53.4552C1539.32 54.5102 1539.76 58.4922 1543.3 57.8572C1548.71 56.8902 1553.86 57.6742 1558.83 59.2052C1562.15 60.2252 1561.04 57.2442 1559.09 56.0372C1555.73 53.9632 1551.97 52.6862 1548.09 52.6642ZM1513.07 54.2172C1513.27 54.5592 1513.51 54.8732 1513.78 55.1542C1513.95 55.3222 1514.12 55.4782 1514.29 55.6252C1513.39 56.0262 1512.61 56.5402 1511.94 57.1462C1512.26 56.1572 1512.64 55.1812 1513.07 54.2172ZM1527.65 59.9102C1527.22 59.9172 1526.84 60.5732 1526.91 61.3942C1526.97 62.1532 1527.28 63.4512 1526.96 63.8752C1526.24 64.8282 1525.5 65.9292 1524.78 67.1372C1523.27 65.3942 1521.06 64.0262 1518.7 63.6702C1517.28 63.4552 1515.76 63.6572 1514.49 64.5352C1513.21 65.4132 1512.27 66.9062 1511.78 68.9572C1511.74 69.1122 1511.73 69.2722 1511.76 69.4302C1511.78 69.5872 1511.84 69.7392 1511.92 69.8752C1512 70.0112 1512.11 70.1292 1512.24 70.2222C1512.37 70.3162 1512.52 70.3842 1512.67 70.4222C1512.83 70.4592 1512.99 70.4642 1513.15 70.4392C1513.3 70.4142 1513.45 70.3592 1513.59 70.2752C1513.73 70.1922 1513.84 70.0842 1513.94 69.9552C1514.03 69.8262 1514.1 69.6782 1514.14 69.5232C1514.2 69.2662 1514.27 69.0272 1514.34 68.8062C1514.6 69.3772 1515.04 69.8642 1515.59 70.2052C1516.15 70.5462 1516.8 70.7282 1517.46 70.7282C1517.9 70.7282 1518.35 70.6452 1518.76 70.4842C1519.17 70.3232 1519.55 70.0882 1519.86 69.7912C1520.18 69.4932 1520.43 69.1402 1520.6 68.7522C1520.77 68.3632 1520.86 67.9462 1520.86 67.5252C1520.86 67.3582 1520.85 67.1922 1520.82 67.0272C1521.92 67.6842 1522.92 68.5832 1523.52 69.4762C1522.37 71.8142 1521.45 74.4002 1521.1 77.0062C1520.97 77.9642 1520.97 79.4222 1521.42 80.8402C1521.79 82.0092 1523.27 83.4902 1524.28 83.9062C1526.45 84.8012 1527.01 83.4662 1525.24 82.6762C1524.45 82.3272 1523.92 81.4142 1523.6 80.3652C1523.28 79.3162 1523.25 78.1282 1523.31 77.6682C1523.79 74.1082 1525.66 70.0172 1527.55 66.7602C1528.51 65.1002 1529.01 63.5052 1528.71 61.7342C1528.48 60.4012 1528.04 59.9042 1527.65 59.9102ZM1546.7 61.8202C1546.38 61.8212 1546.06 61.8382 1545.75 61.8732C1544.91 61.9662 1544.1 62.1822 1543.34 62.5452C1541.82 63.2692 1540.56 64.5842 1539.75 66.4142C1539.69 66.5602 1539.65 66.7172 1539.65 66.8772C1539.64 67.0362 1539.67 67.1952 1539.73 67.3442C1539.79 67.4922 1539.87 67.6272 1539.98 67.7422C1540.09 67.8572 1540.23 67.9492 1540.37 68.0142C1540.67 68.1432 1541 68.1502 1541.3 68.0332C1541.6 67.9172 1541.84 67.6872 1541.97 67.3922C1542.16 66.9602 1542.37 66.5842 1542.6 66.2582C1542.76 66.9992 1543.23 67.6702 1543.92 68.1542C1544.61 68.6382 1545.48 68.9042 1546.39 68.9042C1547.41 68.9042 1548.39 68.5672 1549.11 67.9672C1549.83 67.3662 1550.23 66.5522 1550.23 65.7032C1550.23 65.4412 1550.19 65.1802 1550.12 64.9262C1552.31 65.7432 1554.63 67.2582 1556.59 69.2052C1556.82 69.4312 1557.12 69.5592 1557.45 69.5582C1557.77 69.5572 1558.08 69.4292 1558.3 69.2012C1558.42 69.0882 1558.5 68.9542 1558.57 68.8062C1558.63 68.6592 1558.66 68.5012 1558.66 68.3422C1558.66 68.1822 1558.63 68.0242 1558.57 67.8772C1558.5 67.7292 1558.42 67.5972 1558.3 67.4842C1555.38 64.5742 1551.78 62.4732 1548.32 61.9432C1547.78 61.8602 1547.24 61.8182 1546.7 61.8202ZM1531.13 80.5472C1530.81 80.5462 1530.54 80.6372 1530.43 80.8362C1529.93 81.6742 1530.96 82.4222 1531.51 82.8632C1532.05 83.2952 1533.35 83.6022 1533.48 82.6192C1533.66 81.3782 1532.11 80.5492 1531.13 80.5472ZM1532.94 92.5192C1529.62 92.5012 1526.08 93.2032 1522.41 95.5862C1522.14 95.7612 1521.96 96.0372 1521.89 96.3512C1521.82 96.6662 1521.88 96.9942 1522.06 97.2642C1522.23 97.5332 1522.51 97.5642 1522.82 97.6312C1523.13 97.6782 1523.47 97.6002 1523.79 97.4862C1524.41 97.0802 1525.02 96.9432 1525.67 96.7502C1527.26 96.2862 1528.65 96.3262 1530.07 96.1442C1531.8 95.9222 1534.14 95.5472 1535.46 95.4742C1538.34 95.3172 1539.89 95.5402 1542.83 95.9942C1542.98 96.0182 1543.24 96.0362 1543.4 95.9982C1543.55 95.9602 1543.69 95.8912 1543.82 95.7972C1543.95 95.7032 1544.06 95.6422 1544.14 95.5062C1544.22 95.3692 1544.28 95.2182 1544.3 95.0602C1544.33 94.9032 1544.33 94.7412 1544.28 94.5862C1544.24 94.4312 1544.13 94.3412 1544.03 94.2132C1543.66 93.8542 1543.33 93.7352 1542.86 93.6092C1540.06 93.1722 1536.95 92.6432 1533.61 92.5312C1533.39 92.5242 1533.17 92.5212 1532.94 92.5192ZM1585.51 135.416C1581.01 142.247 1573.55 148.343 1565.75 151.756C1561.09 153.794 1556.34 154.878 1552.08 154.699C1547.97 154.527 1544.36 153.204 1541.52 150.443C1541.52 150.443 1539.16 152.011 1539.22 152.092C1542.64 155.612 1547.15 157.27 1551.96 157.472C1556.77 157.674 1561.91 156.467 1566.86 154.297C1575.05 150.714 1582.79 144.516 1587.64 137.257C1587.64 137.257 1585.52 135.44 1585.51 135.416ZM1625.67 162.474C1625.55 162.335 1625.34 162.405 1625.03 162.734C1623.88 164.105 1622.38 167.232 1622.01 168.426C1610.22 206.004 1610.34 247.657 1614.1 271.035C1611.21 273.201 1610.05 275.577 1610.11 278.637C1610.13 280.125 1610.32 281.614 1610.76 282.933C1610.98 283.566 1611.28 284.192 1611.68 284.736L1609.83 286.703L1609.68 286.68C1609.52 286.653 1609.36 286.652 1609.21 286.674C1600.47 285.135 1593.65 289.755 1589.71 293.943C1583.19 300.862 1574.21 303.888 1565.81 308.838C1565.46 309.043 1564.52 309.467 1563.65 309.933C1561.68 310.157 1559.73 310.375 1557.87 310.59C1554.92 310.934 1551.72 310.689 1548.62 311.201C1545.59 311.702 1542.57 313.174 1540.71 316.609C1537.77 312.657 1536.45 308.666 1536.01 304.308C1535.51 299.276 1536.26 293.741 1537.3 287.51C1539.39 275.045 1542.61 259.82 1538.38 240.365C1535.42 233.799 1536.49 247.367 1536.74 249.396C1538.5 264.265 1536.01 276.353 1534.22 286.994C1533.42 291.795 1532.75 296.304 1532.73 300.642C1522.45 290.013 1518.43 277.405 1516.22 266.422C1515.14 261.065 1514.63 255.951 1514.53 250.918C1514.33 241.203 1514.73 231.388 1514.64 221.593C1514.55 212.071 1511.69 205.9 1511.59 211.238C1511.52 214.549 1511.58 217.871 1511.57 221.197C1511.55 230.985 1511.52 240.804 1511.46 250.463C1511.43 256.152 1512.22 262.287 1513.23 267.459C1515.17 277.281 1518.73 288.505 1526.76 298.574V298.767L1529.82 333.054C1526.73 336.567 1522.97 340.098 1518.31 343.508C1517.73 343.93 1517.52 344.691 1517.78 345.353C1517.82 345.432 1517.85 345.509 1517.88 345.588C1513.73 347.825 1509.64 350.269 1505.59 353.056C1503.79 346.044 1501.36 338.998 1499.2 332.052C1498.36 332.601 1497.49 333.151 1496.64 333.699C1496.67 333.79 1496.69 333.881 1496.72 333.972C1495.46 334.708 1493.26 335.969 1491.8 336.812C1468.38 351.719 1441.77 366.949 1419.19 386.14C1409.04 394.775 1404.33 400.721 1399.02 412.801C1398.26 414.511 1397.66 417.244 1397.1 419.17C1395.62 426.142 1395.08 433.349 1395.35 439.984L1400.75 573.236C1398.67 573.11 1396.59 572.983 1394.51 572.859C1394.1 572.834 1393.7 572.971 1393.39 573.238C1393.08 573.506 1392.89 573.884 1392.86 574.291L1391.27 593.535C1391.24 593.913 1391.35 594.288 1391.58 594.593C1391.8 594.897 1392.13 595.11 1392.5 595.189C1397.84 596.332 1403.19 597.403 1408.59 598.289C1398.44 608.232 1388.12 620.332 1382.18 634.773C1378.92 642.714 1376.97 651.163 1376.38 658.273C1376.08 661.827 1376.12 665.045 1376.53 667.74C1376.87 669.957 1377.42 671.847 1378.43 673.283C1369.48 682.847 1359.75 691.908 1349.88 700.902C1347.85 702.755 1346.04 704.483 1344.65 706.175C1343.25 707.867 1342.22 709.543 1342.05 711.431C1341.87 713.319 1342.79 715.224 1344.54 716.664C1346.3 718.103 1348.86 719.298 1352.52 720.457C1368.54 725.527 1395.2 720.101 1423.08 708.949C1450.96 697.797 1479.95 680.764 1499.93 661.816C1500.09 661.671 1500.21 661.499 1500.29 661.306C1500.37 661.114 1500.42 660.907 1500.42 660.697C1500.42 660.487 1500.38 660.28 1500.3 660.086C1500.22 659.892 1500.1 659.717 1499.95 659.57L1483.52 643.515C1483.46 643.388 1483.39 643.271 1483.3 643.164C1483.14 642.985 1482.95 642.843 1482.73 642.75L1469.82 630.134C1469.52 629.85 1469.13 629.693 1468.72 629.697C1468.1 627.853 1467.48 626.008 1466.88 624.162L1479.97 601.228C1481.82 597.992 1482.48 594.567 1481 591.83C1483.9 584.132 1487.14 577.539 1490.86 571.476C1497.01 573.387 1504.04 574.247 1512.37 573.48C1512.64 573.456 1512.9 573.362 1513.12 573.207C1513.34 573.052 1513.52 572.842 1513.64 572.597L1519.49 560.32C1520.27 558.686 1520.9 557.437 1521.34 556.379C1521.78 555.322 1522.2 554.384 1521.77 553.17C1521.55 552.563 1521.04 552.05 1520.54 551.777C1520.14 551.563 1519.75 551.445 1519.33 551.361C1535.16 506.724 1548.44 462.289 1561.89 418.504C1563.2 414.24 1565.59 410.769 1569.45 409.121L1633.53 381.72C1640.95 378.494 1645.02 371.843 1647.22 366.076C1649.94 358.987 1650.86 350.348 1650.76 342.695L1650.64 339.013C1650.53 337.078 1650.36 335.244 1650.14 333.558C1649.64 329.749 1649.03 326.402 1645.21 323.455C1643.15 321.865 1641.04 320.421 1638.91 319.029C1644.75 317.423 1648.71 314.652 1651.72 311.496L1650.09 309.281C1646.87 312.844 1642.51 315.775 1635.01 317.08C1616.24 320.345 1597.74 325.238 1579.73 331.631C1563 337.566 1546.7 347.526 1530.48 358.961C1526.51 354.839 1523.32 350.126 1521.15 345.181C1531.98 336.975 1538.09 328.059 1542.19 320.498C1542.35 320.318 1542.46 320.109 1542.52 319.888C1542.81 319.337 1543.1 318.794 1543.37 318.26C1544.78 315.514 1546.58 314.701 1549.13 314.279C1551.69 313.856 1554.89 314.079 1558.24 313.689C1565.23 312.875 1573.46 312.074 1580.8 310.736C1582.48 310.296 1587.02 308.756 1586.6 307.511C1586.4 306.672 1585.56 306.548 1584.72 306.744C1580.93 307.627 1576.63 308.31 1572.25 308.892C1579.02 305.415 1586.22 302.206 1591.98 296.082C1595.72 292.112 1601.83 287.896 1609.95 289.957C1610.21 290.024 1610.48 290.018 1610.73 289.951C1613.58 290.475 1618.65 291.88 1621.8 291.906C1623.32 291.918 1624.39 291.611 1624.56 290.738C1624.17 289.822 1622.71 289.634 1621.02 289.179C1618.95 288.621 1616.55 287.882 1615.36 287.625L1613.53 287.32L1615.09 285.666C1615.3 285.445 1615.43 285.184 1615.48 284.916C1617.76 282.928 1619.66 282.802 1621.64 283.343C1624.12 283.756 1628.18 287.64 1629.58 286.607C1630.44 285.668 1628.19 283.347 1627.34 282.779C1625.94 281.773 1624.31 280.838 1622.46 280.334C1621.74 280.136 1620.98 280.02 1620.2 280.002C1618.13 279.953 1615.91 280.591 1613.83 282.232C1613.8 282.141 1613.76 282.042 1613.72 281.933C1613.43 281.076 1613.25 279.834 1613.23 278.578C1613.19 276.481 1614.11 274.615 1616.54 272.898C1616.68 272.849 1616.8 272.782 1616.92 272.695L1627.81 264.689C1628.16 264.435 1628.37 264.067 1628.43 263.675C1628.53 261.926 1627.29 262.747 1626.38 263.187C1623.89 264.409 1620.23 266.912 1617.41 268.73C1614.27 247.635 1613.94 211.213 1622.18 178.789C1623.25 174.674 1626.54 163.45 1625.67 162.474ZM1504.7 270.703C1504.57 270.708 1504.45 270.733 1504.33 270.777C1504.03 270.89 1503.78 271.12 1503.65 271.412C1501.86 275.304 1499.4 278.61 1496.96 282.088C1496.82 282.285 1496.75 282.519 1496.74 282.76C1496.74 283.001 1496.8 283.238 1496.93 283.441C1497.06 283.643 1497.25 283.802 1497.47 283.898C1497.7 283.994 1497.94 284.02 1498.18 283.976C1504.74 282.749 1509.05 280.327 1513.07 277.941C1513.21 277.86 1513.33 277.753 1513.43 277.625C1513.52 277.498 1513.59 277.352 1513.63 277.197C1513.67 277.043 1513.68 276.882 1513.66 276.724C1513.63 276.567 1513.58 276.416 1513.5 276.279C1513.33 276.002 1513.07 275.802 1512.75 275.722C1512.44 275.643 1512.11 275.689 1511.83 275.853C1508.56 277.795 1505.26 279.601 1500.78 280.838C1502.61 278.23 1504.42 275.553 1505.85 272.422C1505.92 272.277 1505.96 272.12 1505.96 271.961C1505.97 271.802 1505.95 271.644 1505.89 271.494C1505.83 271.344 1505.75 271.206 1505.64 271.09C1505.53 270.973 1505.4 270.878 1505.26 270.812C1505.08 270.732 1504.89 270.695 1504.7 270.703ZM1516.55 288.816C1516.47 288.815 1516.39 288.822 1516.31 288.838C1515.99 288.897 1515.71 289.079 1515.53 289.344C1511.23 295.626 1506.26 301.249 1500.75 306.349C1500.64 306.457 1500.54 306.587 1500.48 306.732C1500.41 306.877 1500.37 307.033 1500.37 307.193C1500.36 307.352 1500.38 307.511 1500.44 307.66C1500.5 307.81 1500.58 307.947 1500.69 308.064C1500.91 308.3 1501.21 308.439 1501.53 308.451C1501.85 308.463 1502.17 308.348 1502.4 308.129C1508.03 302.919 1513.12 297.159 1517.53 290.715C1517.72 290.45 1517.78 290.123 1517.73 289.807C1517.67 289.491 1517.48 289.211 1517.22 289.029C1517.02 288.893 1516.79 288.819 1516.55 288.816ZM1530.19 302.508C1530.33 302.654 1530.46 302.8 1530.61 302.945C1530.94 303.29 1531.97 304.16 1532.92 304.758C1533.46 309.943 1535.26 314.912 1539.11 319.629C1537.37 322.809 1535.29 326.185 1532.64 329.627L1530.19 302.508ZM1635.18 319.869C1635.25 319.945 1635.33 320.016 1635.43 320.076C1638.2 321.859 1640.92 323.649 1643.52 325.65C1646.72 328.117 1646.89 330.131 1647.39 333.92C1647.67 336.081 1647.84 338.536 1647.87 341.15C1647.79 341.344 1647.74 341.554 1647.74 341.765C1647.74 341.977 1647.79 342.187 1647.87 342.381C1647.84 349.837 1646.74 358.378 1644.17 365.086C1642.09 370.54 1638.96 375.876 1632.42 378.719L1568.34 406.578C1563.6 408.64 1560.71 412.901 1559.24 417.687C1545.74 461.636 1531.5 506.26 1515.57 551.094C1515.32 551.091 1515.08 551.085 1514.81 551.082C1493.81 549.198 1477.61 537.552 1465.79 521.221L1509.65 389.715C1513.55 378.018 1519.23 370.518 1524.04 367C1542.86 353.226 1561.6 341.007 1580.66 334.244C1598.43 327.938 1616.68 323.107 1635.18 319.869ZM1497.73 337.06C1499.7 343.037 1501.74 348.982 1503.17 354.771C1498.75 357.986 1494.4 361.644 1490.09 365.916C1486.22 369.768 1484.43 375.635 1483.79 382.18C1483.15 388.638 1481.74 396.594 1480.82 400.262C1480.56 401.331 1480.75 402.454 1481.3 403.258C1481.85 404.063 1482.65 404.546 1483.45 404.82C1484.6 405.21 1485.87 405.296 1486.99 404.84C1487.27 406.603 1487.78 408.133 1488.68 409.424C1489.9 411.185 1491.65 411.906 1493.17 411.736C1494.07 411.635 1494.87 411.285 1495.51 410.779C1495.97 411.287 1496.51 411.727 1497.14 412.084L1468.72 433.912C1462.9 438.387 1460.72 443.218 1460.66 450.115L1459.65 574.146C1440.75 575.429 1422.55 574.539 1404.35 573.453L1398.47 439.857C1397.76 422.285 1402.57 401.167 1415.9 392.314C1444.99 372.989 1470.85 355.279 1497.73 337.06ZM1519.18 348.435C1521.39 352.879 1524.37 357.059 1527.9 360.791C1526.07 362.103 1524.23 363.419 1522.4 364.762C1516.92 368.765 1511.06 376.718 1507.02 388.838L1501.67 404.652C1501.72 398.136 1503.3 390.65 1505.02 385.099C1505.58 383.276 1506.16 379.942 1504.59 381.685C1503.97 382.379 1503.4 383.381 1503.03 384.348C1500.2 391.623 1498.31 402.063 1499.61 410.18L1499.31 410.412C1498.36 410.125 1497.7 409.641 1497.18 408.994C1496.46 408.114 1496 406.848 1495.76 405.31C1495.27 402.234 1495.69 398.202 1495.83 394.695C1495.96 391.289 1496.51 387.925 1497.26 385.195C1497.66 383.716 1498.16 382.42 1498.61 381.416C1499.1 380.34 1500.9 374.919 1497.91 377.963C1497.39 378.503 1496.94 379.22 1496.53 380.053C1495.91 381.289 1495.39 382.81 1494.91 384.556C1494.12 387.48 1493.54 390.998 1493.4 394.599C1493.27 397.971 1492.8 402.101 1493.36 405.687C1493.52 406.737 1493.78 407.753 1494.19 408.687C1493.86 408.994 1493.38 409.271 1492.9 409.324C1492.23 409.399 1491.51 409.238 1490.67 408.035C1489.2 405.93 1488.59 402.384 1488.64 397.455C1488.72 390.642 1490.18 383.544 1492.22 376.967C1493.23 373.732 1491.93 372.046 1490.4 376.185C1487.92 382.862 1486.75 390.287 1486.68 397.43C1486.66 398.841 1486.66 400.164 1486.7 401.406C1486.48 401.477 1486.28 401.593 1486.11 401.76C1486.03 401.838 1485.09 402.082 1484.46 401.867C1484.14 401.759 1483.95 401.597 1483.88 401.498C1483.82 401.4 1483.76 401.361 1483.85 401.015C1484.84 397.064 1485.32 389.139 1485.98 382.484C1486.59 376.329 1489.22 371.18 1492.3 368.129C1501 359.485 1509.89 353.457 1519.18 348.435ZM1497.99 415.529L1463.38 517.91L1463.43 450.139C1463.49 443.753 1465.04 440.239 1470.41 436.111L1497.99 415.529ZM1463.37 523.201C1475.58 539.994 1492.6 552.224 1514.54 554.191C1514.58 554.194 1514.62 554.195 1514.66 554.195C1516.47 554.215 1517.77 554.264 1518.49 554.379C1518.65 554.405 1518.65 554.419 1518.74 554.445C1518.71 554.449 1518.73 554.517 1518.46 555.182C1518.1 556.046 1517.46 557.309 1516.67 558.978L1511.23 570.396C1488.02 572.222 1476.11 561.087 1463.35 549.742L1463.37 523.201ZM1463.35 553.914C1470.56 560.311 1478.09 566.694 1487.84 570.431C1484.54 575.891 1481.61 581.777 1478.96 588.445C1478.37 587.318 1477.87 586.131 1477.72 585.031C1477.1 580.554 1475.35 575.922 1472.57 572.414C1470.25 569.478 1467.06 567.308 1463.34 567.053L1463.35 553.914ZM1463.33 570.172C1465.97 570.396 1468.21 571.938 1470.12 574.349C1472.45 577.294 1474.08 581.499 1474.63 585.461C1475.07 588.66 1477.01 591.392 1478.11 593.07C1479.08 594.555 1478.9 596.816 1477.26 599.683L1465.61 620.09C1463.32 612.45 1461.58 604.84 1461.46 597.412C1462.82 597.069 1464.18 596.697 1465.55 596.291C1465.88 596.194 1466.16 595.992 1466.36 595.715C1466.57 595.438 1466.67 595.103 1466.66 594.76L1466.21 575.287C1466.21 575.074 1466.16 574.864 1466.07 574.67C1465.98 574.476 1465.85 574.304 1465.69 574.162C1465.53 574.019 1465.34 573.911 1465.14 573.844C1464.94 573.776 1464.73 573.75 1464.51 573.769C1464.12 573.803 1463.73 573.834 1463.33 573.867V570.172ZM1395.85 576.053C1417.85 577.38 1439.9 578.845 1463.13 576.965L1463.51 593.582C1447.42 598.146 1431.96 598.19 1416.69 596.279C1416.47 596.197 1416.24 596.165 1416 596.187C1416 596.187 1416 596.19 1415.99 596.191C1408.8 595.262 1401.65 593.908 1394.5 592.394L1395.85 576.053ZM1458.35 598.146C1458.66 609.12 1462.18 620.095 1465.79 630.773C1461.41 632.702 1457.37 635.17 1453.12 636.414C1448.11 637.883 1442.87 637.867 1435.81 633.334C1431.69 630.687 1427.29 626.078 1422.6 623.888C1421.88 623.553 1421.14 623.288 1420.38 623.096L1417.93 599.607C1431.07 601.136 1444.48 601.194 1458.35 598.146ZM1412.46 598.89C1413.22 599.002 1413.98 599.11 1414.75 599.213L1417.22 622.84C1416.52 622.92 1415.83 623.092 1415.14 623.383C1412.65 624.443 1410.53 626.843 1408.64 630.805C1403.53 641.505 1397 651.288 1389.58 660.494C1386.66 657.145 1385.56 651.38 1385.64 645.433C1385.74 638.892 1387.21 632.233 1388.41 628.957C1388.41 628.942 1388.42 628.927 1388.42 628.912C1394.65 617.338 1403.66 607.329 1412.46 598.89ZM1418.08 625.887C1418.28 625.884 1418.47 625.894 1418.68 625.914C1419.48 625.999 1420.33 626.274 1421.28 626.715C1425.06 628.479 1429.52 632.998 1434.13 635.959C1441.8 640.891 1448.36 641.063 1454 639.41C1459.31 637.855 1463.85 634.957 1468.4 633.117L1479.67 644.123C1429.81 685.037 1386.59 707.239 1354.16 701.217C1376.6 680.696 1398.4 659.462 1411.46 632.15C1413.17 628.568 1414.87 626.89 1416.37 626.254C1416.93 626.015 1417.49 625.895 1418.08 625.887ZM1382.62 642.847C1382.57 643.688 1382.53 644.537 1382.52 645.388C1382.43 651.904 1383.49 658.674 1387.58 662.937C1385.34 665.628 1383.03 668.272 1380.65 670.875C1380.23 670.011 1379.85 668.788 1379.61 667.269C1379.26 664.918 1379.21 661.909 1379.49 658.535C1379.89 653.79 1380.94 648.323 1382.62 642.847ZM1481.92 646.316L1496.57 660.633C1477.04 678.757 1448.94 695.247 1421.92 706.053C1394.37 717.073 1367.87 722.04 1353.47 717.482C1350.01 716.387 1347.75 715.258 1346.52 714.252C1345.29 713.245 1345.07 712.581 1345.15 711.722C1345.23 710.864 1345.85 709.618 1347.06 708.154C1348.12 706.857 1349.62 705.397 1351.33 703.814C1385.91 711.706 1430.58 688.495 1481.92 646.316Z" fill="#232846"/>
<path d="M1470.54 623.975H1463.6V631.554H1470.54V623.975Z" fill="#F5F5F7"/>
<path d="M1529.07 4.26611C1528.86 5.60811 1528.63 8.31311 1529.26 9.41011C1530.51 11.5941 1532.96 12.2671 1535.76 10.8071C1536.85 10.1631 1538.34 8.94711 1539.65 8.73111C1540.88 8.56311 1542.13 8.78911 1543.57 9.90611C1544.39 10.5321 1545.57 10.6801 1545.97 9.73711C1547.81 4.50811 1554.72 5.06511 1556.31 8.61511C1557.59 11.4701 1558.93 11.1381 1560.27 8.9841C1560.99 7.8311 1561.87 7.27511 1562.84 7.00711C1564.09 6.66411 1565.6 6.87911 1566.99 7.55911C1568.39 8.23911 1569.62 9.3731 1570.3 10.5961C1570.76 11.4281 1571.03 12.2631 1570.91 13.1041C1570.38 16.8601 1572.26 16.9711 1574.51 15.1211C1576.22 13.7121 1577.7 13.6981 1579.09 14.0571C1580.81 14.5021 1582.39 15.9211 1582.79 16.4441C1584.18 18.2631 1586.48 18.6291 1588.4 18.3111C1589.05 18.2051 1589.64 17.9511 1590.24 17.7261C1589.87 18.7491 1589.36 19.4971 1588.66 19.9911C1587.44 20.8521 1586.99 21.2291 1585.19 21.6651V21.6771C1585.13 21.6961 1585.08 21.6941 1585.02 21.7141C1583.16 22.3801 1584 24.7121 1585.92 24.2411C1586.06 24.2071 1586.25 24.1561 1586.4 24.1221C1589.3 23.1931 1591.17 24.3331 1593.07 25.8741C1594.8 27.2761 1595.11 29.5201 1594.94 31.7151C1594.69 34.8171 1596.03 34.2651 1598.05 33.8171C1602.12 32.9371 1604.34 38.8831 1602.01 40.8901C1599.8 42.6471 1600.68 44.0241 1602.95 44.3901C1607.99 45.2021 1609.16 50.4261 1608.17 53.9821C1607.73 55.5691 1608 57.1591 1608.79 58.3331C1609.57 59.5081 1610.75 60.2891 1612.03 60.7911C1613.18 61.2431 1614.44 61.4271 1615.68 61.4431C1615.26 61.9321 1614.85 62.4461 1614.36 62.7881C1612.94 63.7731 1611.24 64.2271 1608.32 63.2581C1607.09 62.8471 1605.92 64.0451 1606.36 65.2711C1607.13 67.3851 1607.18 68.8521 1606.95 69.8301C1606.72 70.8091 1606.24 71.3821 1605.55 71.8471C1604.16 72.7761 1601.69 72.8951 1600.73 72.7251C1599.71 72.5431 1598.8 73.3891 1598.91 74.4201C1599.27 78.0081 1598.14 79.8411 1596.67 81.0011C1595.64 81.8091 1594.35 82.2231 1593.3 82.3721C1593.75 80.5491 1593.91 78.6491 1593.76 76.7331C1593.55 73.9881 1591.73 71.8581 1589.42 71.1481C1588.84 70.9701 1588.24 70.8831 1587.62 70.8881C1586.46 70.8981 1585.27 71.2341 1584.19 71.9071C1583.79 71.4981 1583.15 71.4081 1582.66 71.7251C1580.42 72.6151 1579.14 72.0631 1578.05 70.6101C1576.97 69.1571 1577.01 67.3221 1578.42 65.1121C1578.91 64.3471 1578.75 63.3671 1577.87 63.1151C1574.93 62.2591 1573.49 60.9451 1572.99 58.8801C1572.58 57.2141 1572.48 55.1731 1572.79 52.9161C1573.24 49.7351 1572.02 49.1881 1570.62 51.8781C1569.36 54.3161 1566.81 55.5891 1564.49 55.6451C1565.14 54.6201 1565.79 53.3701 1565.88 52.1481C1566.05 50.1181 1565.27 47.9561 1563.46 46.0231C1562.91 45.4341 1562.41 45.5351 1561.99 46.2261C1560.96 47.9431 1559.51 48.2191 1558.2 47.7791C1556.89 47.3381 1555.8 46.1241 1555.87 44.2421C1555.91 43.0601 1554.41 42.5211 1553.69 43.4611C1552.6 44.8941 1550.49 45.2301 1548.88 44.4991C1547.27 43.7691 1546.11 42.2351 1547 39.1191C1547.44 37.1601 1546.55 36.8111 1544.79 37.2381C1544.76 37.2451 1544.74 37.2521 1544.71 37.2611C1543.55 37.6311 1542.56 38.3401 1541.97 39.3541C1541.38 40.3681 1541.73 41.6701 1542.18 42.9211C1543.05 45.3721 1542.33 47.2971 1541.01 48.9231C1540.16 49.9721 1538.59 50.8221 1536.66 51.5301C1536.91 50.9781 1537.25 50.4801 1537.35 49.8541C1537.52 48.7511 1537.36 47.5271 1536.71 46.4331C1536.06 45.3381 1534.94 44.4171 1533.37 43.7521C1531.62 43.0101 1530.53 42.1641 1529.89 41.2921C1529.85 41.0491 1529.75 40.8201 1529.59 40.6371C1529.53 40.5801 1529.48 40.5291 1529.41 40.4831C1529.12 39.8191 1529.05 39.1551 1529.11 38.5241C1529.28 36.8031 1530.69 35.1901 1532.2 34.7761C1532.85 34.5991 1533.23 33.9311 1533.05 33.2841C1532.9 32.7381 1532.39 32.3681 1531.83 32.3931C1531.74 32.3971 1531.65 32.4111 1531.56 32.4351C1528.97 33.1431 1526.96 35.4961 1526.69 38.2921C1526.61 39.1671 1526.72 40.0711 1527.05 40.9551C1526.85 40.9901 1526.64 40.9891 1526.42 40.9601C1525.88 40.8911 1525.32 40.5961 1525.03 40.3221C1524.83 40.1311 1524.56 40.0161 1524.29 39.9961C1524.01 39.9761 1523.73 40.0521 1523.5 40.2111C1523.28 40.3701 1523.11 40.6031 1523.03 40.8701C1522.95 41.1381 1522.97 41.4231 1523.08 41.6801C1523.38 42.3861 1523.57 43.6231 1523.31 44.6361C1523.06 45.6481 1522.52 46.4681 1521.03 46.9321C1517.92 47.9011 1516.5 51.5301 1517.75 54.5841C1516.88 54.3761 1516.06 54.0211 1515.53 53.4671C1514.54 52.4481 1514.08 50.9321 1515.73 47.9591C1515.86 47.7271 1515.91 47.4591 1515.87 47.1961C1515.83 46.9321 1515.71 46.6891 1515.52 46.5031C1515.33 46.3171 1515.08 46.1981 1514.82 46.1651C1514.55 46.1321 1514.29 46.1871 1514.06 46.3201C1512.87 47.0081 1511.99 46.9811 1511.26 46.6691C1510.52 46.3581 1509.9 45.6721 1509.59 44.8341C1509.28 43.9961 1509.28 43.0541 1509.66 42.2541C1510.05 41.4541 1510.81 40.7171 1512.34 40.2951C1512.5 40.2531 1512.64 40.1811 1512.77 40.0831C1512.89 39.9851 1513 39.8641 1513.08 39.7251C1513.16 39.5871 1513.21 39.4341 1513.23 39.2761C1513.25 39.1181 1513.24 38.9571 1513.19 38.8031C1513.15 38.6501 1513.08 38.5061 1512.98 38.3801C1512.88 38.2541 1512.76 38.1481 1512.62 38.0701C1512.48 37.9911 1512.33 37.9401 1512.17 37.9201C1512.01 37.9011 1511.85 37.9121 1511.7 37.9551C1509.62 38.5251 1508.18 39.7391 1507.48 41.1991C1506.77 42.6591 1506.79 44.2871 1507.31 45.6841C1507.84 47.0811 1508.87 48.2961 1510.31 48.9041C1511 49.1971 1511.78 49.3061 1512.6 49.2511C1512.51 49.5801 1512.44 49.9031 1512.39 50.2181C1511.87 50.2551 1511.37 50.5591 1511.11 51.0651C1508.66 55.8821 1507.58 61.0481 1507.86 66.4881C1506.58 67.1441 1504.66 67.5241 1503.34 67.0341C1501.93 66.5061 1500.51 65.3751 1499.52 63.9331C1497.52 60.6061 1497.7 57.3081 1499.29 55.0131C1500.27 53.6021 1499.69 53.1551 1498.28 52.8801C1492.05 51.6591 1491.79 46.5771 1493.08 44.2851C1493.87 45.8781 1495.64 46.9881 1496.9 47.1641C1499.53 47.5291 1501.29 46.6071 1503.05 44.6891C1503.87 43.7961 1502.83 42.5961 1501.72 42.1111C1498.2 40.5761 1498.02 36.3431 1500.48 34.4471C1501.21 33.9071 1502.67 33.4681 1504.11 33.8551C1505.59 34.2691 1505.79 32.5121 1504.78 31.3801C1502.81 29.1611 1503.15 26.5221 1504.47 24.4821C1505.79 22.4411 1508.61 20.9631 1511.5 21.7011C1512.42 21.9361 1513.34 21.3021 1513.44 20.3591C1513.8 13.2651 1519.33 12.0911 1524.25 13.7711C1526.48 14.5351 1526.14 12.5551 1525.86 11.2921C1525.28 7.70011 1525.96 6.71511 1529.07 4.26611Z" fill="#232846"/>
<path d="M1635.18 319.869C1635.25 319.945 1635.33 320.016 1635.43 320.076C1638.2 321.859 1640.92 323.649 1643.52 325.65C1646.72 328.117 1646.89 330.13 1647.39 333.919C1647.67 336.08 1647.84 338.536 1647.87 341.15C1647.79 341.344 1647.74 341.554 1647.74 341.765C1647.74 341.977 1647.79 342.186 1647.87 342.38C1647.84 349.836 1646.74 358.377 1644.17 365.085C1642.09 370.539 1638.96 375.875 1632.42 378.718L1568.34 406.577C1563.6 408.639 1560.71 412.902 1559.24 417.688C1545.74 461.637 1531.5 506.259 1515.57 551.093C1515.32 551.09 1515.08 551.085 1514.81 551.082C1493.81 549.198 1477.61 537.552 1465.79 521.22L1509.65 389.714C1513.55 378.017 1519.23 370.518 1524.04 367C1542.86 353.226 1561.6 341.006 1580.66 334.243C1598.43 327.937 1616.68 323.107 1635.18 319.869Z" fill="#232846"/>
<path d="M1497.73 337.061C1499.7 343.038 1501.74 348.983 1503.17 354.772C1498.75 357.987 1494.4 361.643 1490.09 365.915C1486.22 369.767 1484.43 375.635 1483.79 382.18C1483.15 388.639 1481.74 396.594 1480.82 400.262C1480.56 401.331 1480.75 402.454 1481.3 403.258C1481.85 404.063 1482.65 404.547 1483.45 404.821C1484.6 405.211 1485.87 405.296 1486.99 404.84C1487.27 406.603 1487.78 408.132 1488.68 409.423C1489.9 411.184 1491.65 411.907 1493.17 411.737C1494.07 411.636 1494.87 411.285 1495.51 410.779C1495.97 411.287 1496.51 411.726 1497.14 412.083L1468.72 433.912C1462.9 438.387 1460.72 443.218 1460.66 450.115L1459.65 574.146C1440.75 575.429 1422.55 574.538 1404.35 573.452L1398.47 439.858C1397.76 422.286 1402.57 401.167 1415.9 392.314C1443.33 370.999 1470.19 354.489 1497.73 337.061Z" fill="#232846"/>
<path d="M1395.85 576.053C1417.85 577.38 1439.9 578.845 1463.13 576.965L1463.51 593.581C1447.42 598.145 1431.96 598.19 1416.69 596.279C1416.47 596.197 1416.24 596.166 1416 596.188L1415.99 596.191C1408.8 595.262 1401.65 593.908 1394.5 592.394L1395.85 576.053Z" fill="#4E4E75"/>
<path d="M1463.37 523.201C1475.58 539.994 1492.6 552.224 1514.54 554.191C1514.58 554.194 1514.62 554.196 1514.66 554.196C1516.47 554.216 1517.77 554.264 1518.49 554.379C1518.65 554.405 1518.65 554.419 1518.74 554.445C1518.71 554.449 1518.73 554.516 1518.46 555.181C1518.1 556.045 1517.46 557.31 1516.67 558.979L1511.23 570.397C1488.02 572.223 1476.11 561.087 1463.35 549.742L1463.37 523.201Z" fill="#4E4E75"/>
<path fill-rule="evenodd" clip-rule="evenodd" d="M1593.85 129.924C1594.23 129.915 1594.68 129.922 1595.19 129.948C1604.5 130.422 1617.58 131.644 1632.95 140.086C1643.7 145.992 1650.51 155.915 1655.19 169.745C1659.87 183.575 1662.32 201.255 1664.27 222.254C1665.61 236.613 1665.58 253.218 1664.12 267.885C1662.66 282.552 1659.68 295.332 1655.52 301.744C1654.11 303.923 1652.73 306.102 1651.09 308.125C1650.96 308.233 1650.86 308.36 1650.77 308.501C1647.48 312.413 1643.05 315.681 1635.01 317.08C1616.24 320.345 1597.74 325.237 1579.73 331.63C1563 337.565 1546.7 347.526 1530.48 358.961C1526.51 354.839 1523.32 350.127 1521.15 345.182C1531.98 336.976 1538.09 328.059 1542.19 320.498C1542.35 320.318 1542.46 320.11 1542.52 319.889C1542.81 319.338 1543.1 318.794 1543.37 318.26C1544.78 315.514 1546.58 314.702 1549.13 314.28C1551.69 313.857 1554.89 314.08 1558.24 313.69C1565.23 312.876 1573.46 312.074 1580.8 310.736C1582.48 310.296 1587.02 308.757 1586.6 307.512C1586.4 306.673 1585.56 306.548 1584.72 306.744C1580.93 307.627 1576.63 308.311 1572.25 308.893C1579.02 305.416 1586.22 302.205 1591.98 296.081C1595.72 292.111 1601.83 287.896 1609.95 289.957C1610.21 290.024 1610.48 290.018 1610.73 289.951C1613.58 290.475 1618.65 291.88 1621.8 291.906C1623.32 291.918 1624.39 291.612 1624.56 290.739C1624.17 289.823 1622.71 289.635 1621.02 289.18C1618.95 288.622 1616.55 287.882 1615.36 287.625L1613.53 287.32L1615.09 285.665C1615.3 285.444 1615.43 285.184 1615.48 284.916C1617.76 282.928 1619.66 282.803 1621.64 283.344C1624.12 283.757 1628.18 287.641 1629.58 286.608C1630.44 285.669 1628.19 283.348 1627.34 282.78C1625.94 281.774 1624.31 280.838 1622.46 280.334C1621.74 280.136 1620.98 280.02 1620.2 280.002C1618.13 279.953 1615.91 280.592 1613.83 282.233C1613.8 282.142 1613.76 282.042 1613.72 281.933C1613.43 281.076 1613.25 279.834 1613.23 278.578C1613.19 276.481 1614.11 274.615 1616.54 272.898C1616.68 272.849 1616.8 272.782 1616.92 272.695L1627.81 264.69C1628.16 264.436 1628.37 264.067 1628.43 263.675C1628.53 261.926 1627.29 262.748 1626.38 263.188C1623.89 264.41 1620.23 266.913 1617.41 268.731C1614.27 247.636 1613.94 211.213 1622.18 178.788C1623.41 174.085 1627.53 160.097 1625.03 162.734C1623.88 164.105 1622.38 167.232 1622.01 168.426C1610.22 206.005 1610.34 247.656 1614.1 271.034C1611.21 273.2 1610.05 275.577 1610.11 278.637C1610.13 280.125 1610.32 281.615 1610.76 282.934C1610.98 283.567 1611.28 284.192 1611.68 284.736L1609.83 286.703L1609.68 286.679C1609.52 286.652 1609.36 286.651 1609.21 286.673C1600.47 285.134 1593.65 289.755 1589.71 293.943C1583.19 300.862 1574.21 303.888 1565.81 308.838C1565.46 309.043 1564.52 309.467 1563.65 309.933C1561.68 310.157 1559.73 310.375 1557.87 310.59C1554.92 310.934 1551.72 310.689 1548.62 311.201C1545.59 311.702 1542.57 313.175 1540.71 316.61C1537.77 312.658 1536.45 308.667 1536.01 304.309C1535.51 299.277 1536.26 293.741 1537.3 287.509C1539.39 275.044 1542.61 259.821 1538.38 240.366C1535.42 233.8 1536.49 247.367 1536.74 249.396C1538.5 264.265 1536.01 276.353 1534.22 286.994C1533.42 291.795 1532.75 296.305 1532.73 300.643C1522.45 290.014 1518.43 277.405 1516.22 266.422C1515.14 261.065 1514.63 255.951 1514.53 250.918C1514.33 241.203 1514.73 231.389 1514.64 221.594C1514.55 212.071 1511.69 205.9 1511.59 211.238C1511.52 214.549 1511.58 217.872 1511.57 221.198C1511.55 230.986 1511.52 240.803 1511.46 250.462C1511.43 256.151 1512.22 262.287 1513.23 267.459C1515.17 277.281 1518.73 288.505 1526.76 298.574V298.768L1529.82 333.054C1526.73 336.567 1522.97 340.098 1518.31 343.508C1517.73 343.93 1517.52 344.691 1517.78 345.353C1517.82 345.432 1517.85 345.509 1517.88 345.588C1513.73 347.825 1509.64 350.27 1505.59 353.057C1501.05 335.36 1491.88 317.211 1495.64 301.962C1495.84 301.783 1496 301.554 1496.09 301.297L1499.32 292.014C1499.45 291.623 1499.43 291.194 1499.25 290.822C1499.07 290.449 1498.74 290.164 1498.35 290.028C1497.96 289.892 1497.53 289.917 1497.16 290.098C1496.79 290.278 1496.5 290.599 1496.37 290.99L1494.58 296.117C1491.93 285.979 1494.34 276.906 1498.09 267.802C1498.24 267.438 1498.22 267.028 1498.05 266.673C1494.44 259.186 1493.57 244.083 1494.68 227.836C1495.71 212.797 1498.13 198.25 1504.27 186.805C1511.15 173.979 1522.47 163.995 1536.22 151.983C1536.73 151.534 1537.24 151.327 1537.69 151.319C1538.13 151.312 1538.6 151.452 1539.22 152.092C1542.64 155.612 1547.15 157.27 1551.96 157.472C1556.77 157.674 1561.91 156.466 1566.86 154.296C1576.78 149.956 1586.05 141.778 1590.31 132.525C1590.92 131.203 1591.28 130.62 1591.73 130.334C1592.08 130.12 1592.69 129.951 1593.85 129.924ZM1504.33 270.778C1504.45 270.734 1504.57 270.708 1504.7 270.703C1504.89 270.695 1505.08 270.732 1505.26 270.812C1505.4 270.878 1505.53 270.973 1505.64 271.09C1505.75 271.206 1505.83 271.343 1505.89 271.493C1505.95 271.643 1505.97 271.802 1505.96 271.961C1505.96 272.12 1505.92 272.277 1505.85 272.422C1504.42 275.553 1502.61 278.23 1500.78 280.838C1505.26 279.601 1508.56 277.796 1511.83 275.854C1512.11 275.69 1512.44 275.643 1512.75 275.722C1513.07 275.802 1513.33 276.002 1513.5 276.279C1513.58 276.416 1513.63 276.568 1513.66 276.725C1513.68 276.883 1513.67 277.044 1513.63 277.198C1513.59 277.353 1513.52 277.498 1513.43 277.625C1513.33 277.753 1513.21 277.86 1513.07 277.941C1509.05 280.327 1504.74 282.75 1498.18 283.977C1497.94 284.021 1497.7 283.994 1497.47 283.898C1497.25 283.802 1497.06 283.643 1496.93 283.441C1496.8 283.238 1496.74 283.001 1496.74 282.76C1496.75 282.519 1496.82 282.285 1496.96 282.088C1499.4 278.61 1501.86 275.303 1503.65 271.411C1503.78 271.119 1504.03 270.891 1504.33 270.778ZM1516.31 288.838C1516.39 288.823 1516.47 288.816 1516.55 288.817C1516.79 288.82 1517.02 288.893 1517.22 289.029C1517.48 289.211 1517.67 289.491 1517.73 289.807C1517.78 290.123 1517.72 290.45 1517.53 290.715C1513.12 297.159 1508.03 302.918 1502.4 308.128C1502.17 308.347 1501.85 308.463 1501.53 308.451C1501.21 308.439 1500.91 308.3 1500.69 308.064C1500.58 307.947 1500.5 307.81 1500.44 307.66C1500.38 307.511 1500.36 307.352 1500.37 307.193C1500.37 307.033 1500.41 306.877 1500.48 306.732C1500.54 306.587 1500.64 306.457 1500.75 306.349C1506.26 301.248 1511.23 295.626 1515.53 289.344C1515.71 289.079 1515.99 288.897 1516.31 288.838Z" fill="#F5F5F7"/>
<path d="M1530.19 302.507C1530.33 302.653 1530.46 302.801 1530.61 302.946C1530.94 303.291 1531.97 304.159 1532.92 304.757C1533.46 309.942 1535.26 314.912 1539.11 319.629C1537.37 322.809 1535.29 326.185 1532.64 329.627L1530.19 302.507Z" fill="#C5C5DA"/>
<path d="M1650.12 309.16C1653.92 315.12 1657.56 322.888 1657.4 327.502C1657.25 331.845 1655.31 335.63 1650.64 339.014C1650.53 337.079 1650.36 335.244 1650.14 333.558C1649.64 329.749 1649.03 326.401 1645.21 323.454C1643.15 321.864 1640.26 317.766 1638.13 316.374C1643.97 314.768 1647.11 312.316 1650.12 309.16Z" fill="#F5F5F7"/>
<path d="M1519.18 348.435C1521.39 352.879 1524.37 357.059 1527.9 360.791C1526.07 362.103 1524.23 363.419 1522.4 364.762C1516.92 368.765 1511.06 376.717 1507.02 388.837L1501.67 404.652C1501.72 398.136 1503.3 390.65 1505.02 385.099C1505.58 383.276 1506.16 379.942 1504.59 381.685C1503.97 382.379 1503.4 383.381 1503.03 384.348C1500.2 391.624 1498.31 402.063 1499.61 410.18L1499.31 410.412C1498.36 410.125 1497.7 409.641 1497.18 408.994C1496.46 408.114 1496 406.848 1495.76 405.31C1495.27 402.234 1495.69 398.202 1495.83 394.695C1495.96 391.289 1496.51 387.925 1497.26 385.195C1497.66 383.716 1498.16 382.419 1498.61 381.415C1499.1 380.339 1500.9 374.919 1497.91 377.963C1497.39 378.503 1496.94 379.219 1496.53 380.052C1495.91 381.288 1495.39 382.811 1494.91 384.557C1494.12 387.481 1493.54 390.998 1493.4 394.6C1493.27 397.972 1492.8 402.102 1493.36 405.688C1493.52 406.738 1493.78 407.753 1494.19 408.687C1493.86 408.994 1493.38 409.271 1492.9 409.324C1492.23 409.399 1491.51 409.237 1490.67 408.034C1489.2 405.929 1488.59 402.384 1488.64 397.455C1488.72 390.642 1490.18 383.543 1492.22 376.966C1493.23 373.731 1491.93 372.046 1490.4 376.185C1487.92 382.862 1486.75 390.286 1486.68 397.429C1486.66 398.84 1486.66 400.164 1486.7 401.406C1486.48 401.477 1486.28 401.593 1486.11 401.76C1486.03 401.838 1485.09 402.082 1484.46 401.867C1484.14 401.759 1483.95 401.596 1483.88 401.497C1483.82 401.399 1483.76 401.361 1483.85 401.015C1484.84 397.064 1485.32 389.14 1485.98 382.485C1486.59 376.33 1489.22 371.179 1492.3 368.128C1501 359.484 1509.89 353.457 1519.18 348.435Z" fill="#F5F5F7"/>
<path d="M1463.35 553.914C1470.56 560.311 1478.09 566.693 1487.84 570.431C1484.54 575.891 1481.61 581.778 1478.96 588.446C1478.37 587.319 1477.87 586.132 1477.72 585.032C1477.1 580.555 1475.35 575.921 1472.57 572.413C1470.25 569.477 1467.06 567.308 1463.34 567.053L1463.35 553.914Z" fill="#C5C5DA"/>
<path d="M1458.35 598.146C1458.66 609.12 1462.18 620.095 1465.79 630.773C1461.41 632.702 1457.37 635.17 1453.12 636.414C1448.11 637.883 1442.87 637.866 1435.81 633.333C1431.69 630.686 1427.29 626.078 1422.6 623.888C1421.88 623.553 1421.14 623.287 1420.38 623.095L1417.93 599.607C1431.07 601.136 1444.48 601.194 1458.35 598.146Z" fill="#F5F5F7"/>
<path d="M1412.46 598.89C1413.22 599.002 1413.98 599.109 1414.75 599.212L1417.22 622.84C1416.52 622.92 1415.83 623.092 1415.14 623.383C1412.65 624.443 1410.53 626.842 1408.64 630.804C1403.53 641.505 1397 651.287 1389.58 660.493C1386.66 657.144 1385.56 651.38 1385.64 645.433C1385.74 638.892 1387.21 632.232 1388.41 628.956C1388.41 628.941 1388.42 628.926 1388.42 628.911C1394.65 617.337 1403.66 607.329 1412.46 598.89Z" fill="#4E4E75"/>
<path d="M1382.62 642.848C1382.57 643.689 1382.53 644.537 1382.52 645.389C1382.43 651.905 1383.49 658.674 1387.58 662.937C1385.34 665.628 1383.03 668.271 1380.65 670.874C1380.23 670.01 1379.85 668.789 1379.62 667.27C1379.26 664.919 1379.21 661.908 1379.49 658.534C1379.89 653.789 1380.94 648.324 1382.62 642.848Z" fill="#F5F5F7"/>
<path d="M1418.08 625.887C1418.28 625.884 1418.47 625.894 1418.68 625.914C1419.48 625.999 1420.33 626.274 1421.28 626.715C1425.06 628.479 1429.52 632.998 1434.13 635.959C1441.8 640.891 1448.36 641.062 1454 639.409C1459.31 637.854 1463.85 634.957 1468.4 633.117L1479.67 644.122C1429.81 685.036 1386.58 707.239 1354.16 701.216C1376.6 680.695 1398.4 659.462 1411.46 632.15C1413.17 628.568 1414.87 626.889 1416.37 626.253C1416.93 626.014 1417.49 625.895 1418.08 625.887Z" fill="#54547A"/>
<path d="M1481.92 646.317L1496.57 660.632C1477.04 678.756 1448.94 695.247 1421.92 706.053C1394.37 717.074 1367.87 722.04 1353.47 717.482C1350.01 716.387 1347.75 715.258 1346.52 714.252C1345.29 713.245 1345.07 712.581 1345.15 711.722C1345.23 710.864 1345.85 709.619 1347.06 708.155C1348.12 706.858 1349.62 705.397 1351.33 703.814C1385.91 711.706 1430.58 688.496 1481.92 646.317Z" fill="#F5F5F7"/>
<path d="M1576.29 95.6842C1574.49 113.87 1579.82 122.266 1584.43 133.69C1584.57 134.041 1585 134.754 1585.51 135.416C1581.01 142.247 1573.55 148.342 1565.75 151.755C1561.09 153.793 1556.34 154.879 1552.08 154.7C1547.97 154.528 1544.36 153.205 1541.52 150.444L1542.94 148.14C1543.23 147.677 1543.49 147.198 1543.36 146.669C1541.88 140.551 1540.33 134.775 1539.18 127.82C1538.9 126.093 1538.82 124.671 1538.26 123.175C1537.7 121.679 1536.14 120.298 1534.25 118.96C1531.94 117.322 1529.5 116.712 1526.01 115.063C1525.71 114.923 1525.43 114.782 1525.17 114.634C1525.27 114.56 1525.36 114.471 1525.44 114.369C1527.24 111.935 1529.18 110.802 1531.34 110.321C1533.51 109.84 1535.95 110.062 1538.55 110.61C1543.77 111.707 1549.54 114.147 1555.14 113.724C1563.6 113.085 1566.88 108.911 1569.44 105.951C1572.27 102.691 1574.31 99.1632 1576.29 95.6842Z" fill="#F5F5F7"/>
<path d="M1524.77 114.372C1524.36 114.126 1523.97 113.837 1523.6 113.493L1523.34 113.25L1523.41 111.11C1523.43 110.558 1525.19 108.963 1525.99 108.325C1528.81 106.065 1532.15 105.27 1536.48 105.823C1538.41 106.068 1540.09 106.445 1544.37 107.595C1548.26 108.641 1549.97 109.015 1551.93 109.247C1552.79 109.349 1554.25 109.381 1555.05 109.316C1558.72 109.017 1561.45 108.116 1563.61 106.489C1564.69 105.679 1565.49 104.875 1567.17 102.919C1569.83 99.8132 1570.97 98.1232 1574.22 92.4532C1575.85 89.5942 1576.68 90.1782 1576.71 90.2022C1576.72 90.2112 1576.61 91.4562 1576.48 92.9682L1576.24 95.7182L1575.55 98.9192C1574.44 104.037 1571.42 105.648 1568.8 108.649C1566.65 111.114 1565.15 112.393 1563.15 113.494C1560.43 114.986 1556.77 115.819 1553.32 115.73C1550.67 115.662 1548.59 113.259 1543.2 111.769C1539.42 110.725 1537.62 110.332 1535.58 110.112C1534.91 110.04 1532.99 110.042 1532.42 110.114C1529.63 110.473 1527.53 111.68 1525.71 113.977C1525.35 114.439 1525.21 114.584 1525.15 114.584C1525.14 114.584 1524.97 114.488 1524.77 114.372Z" fill="#F5F5F7"/>
<path d="M1533.98 110.043C1533.1 110.046 1532.25 110.129 1531.44 110.309C1529.27 110.79 1527.34 111.922 1525.53 114.356C1525.46 114.458 1525.37 114.548 1525.26 114.622C1525.53 114.77 1525.81 114.911 1526.1 115.051C1529.59 116.7 1532.04 117.31 1534.35 118.948C1536.23 120.286 1537.79 121.667 1538.36 123.163C1543.05 131.538 1549.95 124.745 1557.92 117.276L1568.29 107.561C1567.21 108.653 1561.21 113.705 1555.23 113.711C1549.62 113.717 1543.87 111.695 1538.65 110.598C1537.02 110.256 1535.46 110.039 1533.98 110.043Z" fill="#C5C5DA"/>
<path d="M1464.84 347.54C1444.92 359.295 1423.83 374.66 1411.64 387.874C1404.24 395.891 1397.79 406.921 1396.84 415.759C1396.59 418.046 1397.54 418.713 1398.8 414.936C1401.33 407.324 1404.18 402.028 1408.88 396.548C1430.71 371.088 1464.81 352.465 1491.55 336.876C1494.25 335.304 1496.71 334.168 1497.71 333.293C1497.94 333.091 1497.94 331.949 1497.32 332.059C1486.04 335.914 1474.56 341.637 1464.84 347.54Z" fill="#C5C5DA"/>
<path d="M1540.38 316.114C1538.9 314.022 1537.73 311.678 1537.04 309.412C1536.45 307.46 1536.09 305.433 1535.94 303.12C1535.89 302.402 1535.87 299.764 1535.92 299.764C1535.93 299.764 1536.05 299.842 1536.18 299.938C1536.31 300.033 1536.72 300.314 1537.09 300.563C1542.67 304.285 1548.82 305.691 1556.52 305.01C1559.63 304.735 1562.69 304.202 1568.96 302.84C1573.44 301.87 1576.13 301.354 1578.26 301.057C1578.98 300.957 1580.63 300.76 1580.75 300.76C1580.83 300.759 1580.7 300.843 1579.91 301.291C1578.28 302.221 1576.89 302.957 1573.35 304.764C1569.97 306.491 1567.56 307.779 1566.25 308.554C1566.04 308.68 1565.37 309.035 1564.76 309.345L1563.65 309.907L1560.73 310.241C1556.75 310.697 1556.47 310.72 1553.6 310.805C1551.1 310.879 1549.9 310.972 1548.6 311.188C1546.04 311.616 1544.03 312.61 1542.44 314.224C1541.8 314.876 1541.41 315.384 1540.85 316.317L1540.7 316.56L1540.38 316.114Z" fill="#C5C5DA"/>
<path d="M1649.98 332.298C1649.97 332.273 1649.95 332.102 1649.92 331.917C1649.52 329.407 1648.85 327.576 1647.78 326.063C1647.21 325.257 1646.27 324.273 1645.45 323.627C1644.14 322.585 1642.52 321.423 1640.28 319.919L1634.4 317.222C1638.03 316.598 1640.32 315.796 1643.06 314.546C1645.77 313.456 1647.55 311.63 1649.45 309.899C1649.78 312.286 1648.37 314.268 1647.27 315.776C1645.74 317.864 1648.32 321.145 1648.76 322.144C1649.97 324.843 1650.49 326.88 1650.49 329.006C1650.49 329.839 1650.45 330.293 1650.33 330.99C1650.26 331.381 1650.04 332.296 1650.01 332.329C1650 332.336 1649.99 332.322 1649.98 332.298Z" fill="#C5C5DA"/>
<path d="M1531.37 0.000185821C1531.28 -0.000814179 1531.18 0.00218033 1531.08 0.0101803C1527.29 0.45318 1524.7 2.20218 1523.52 4.87018C1522.24 7.77718 1522.95 8.99919 1522.82 10.0952C1521.23 9.31319 1519.24 8.71118 1516.98 9.43018C1513.82 10.4332 1510.48 13.3972 1511.51 18.5982C1508.64 17.0442 1504.33 18.2082 1502.48 20.5002C1500.76 22.6192 1498.94 26.5622 1502.32 31.1702C1499.86 29.9092 1496.17 31.9742 1495.23 35.4932C1494.86 36.8632 1494.79 39.9722 1496.32 40.9682C1497.09 41.4762 1497.61 41.7692 1497.38 42.6122C1497.24 43.0962 1496.53 43.3682 1495.63 42.7762C1495.22 42.5062 1494.51 41.7202 1494.29 41.1722C1493.73 39.7752 1491.4 40.4682 1491.01 41.9202C1489.66 44.6262 1489.57 48.8872 1491.12 51.3632C1492.14 52.9832 1495.53 54.2212 1497.51 54.6202C1495.47 57.4512 1494.9 60.0612 1495.86 62.9352C1496.49 64.8462 1497.83 66.2932 1499.79 66.9332C1500.29 67.0952 1501.35 66.8472 1500.57 66.2492C1499.75 65.6242 1498.88 64.7162 1498.43 63.9042C1496.92 61.2102 1497.92 57.6202 1499.48 55.2642C1500.46 53.8532 1499.69 53.1562 1498.28 52.8812C1492.05 51.6602 1491.79 46.5762 1493.08 44.2852C1493.87 45.8772 1495.58 46.6492 1496.84 46.8442C1498.08 47.0372 1499.55 46.9912 1500.64 45.9542C1501.77 44.8732 1501.93 42.7902 1501.09 41.8602C1500.44 41.1372 1499.96 41.0442 1499.35 40.2722C1498.11 38.3622 1498.71 35.8142 1500.48 34.4472C1501.21 33.9082 1502.67 33.4682 1504.11 33.8552C1505.59 34.2692 1505.79 32.5122 1504.78 31.3792C1502.81 29.1602 1503.15 26.5232 1504.47 24.4822C1505.79 22.4422 1508.61 20.9632 1511.5 21.7012C1512.42 21.9362 1513.34 21.3032 1513.44 20.3592C1513.8 13.2662 1519.33 12.0912 1524.25 13.7712C1526.48 14.5352 1526.14 12.5542 1525.86 11.2912C1525.28 7.69919 1527.01 5.24819 1529.07 4.26519C1528.48 5.60719 1528.53 8.31419 1529.26 9.41019C1530.51 11.5952 1532.96 12.2662 1535.76 10.8062C1536.85 10.1622 1538.34 8.94818 1539.65 8.73218C1540.88 8.56418 1542.13 8.78919 1543.57 9.90619C1544.39 10.5332 1545.57 10.6802 1545.97 9.73618C1547.81 4.50818 1554.72 5.06519 1556.31 8.61519C1557.59 11.4692 1558.93 11.1392 1560.27 8.98418C1560.99 7.83218 1561.87 7.27518 1562.84 7.00818C1564.09 6.66518 1565.6 6.87918 1566.99 7.55818C1568.39 8.23818 1569.62 9.37218 1570.3 10.5962C1570.76 11.4272 1571.03 12.2622 1570.91 13.1032C1570.38 16.8592 1572.26 16.9712 1574.51 15.1212C1576.22 13.7112 1577.88 12.6122 1579.27 12.9712C1580.99 13.4162 1582.57 14.8342 1582.97 15.3572C1584.36 17.1762 1586.66 17.5422 1588.58 17.2252C1589.23 17.1182 1589.82 16.8662 1590.42 16.6412C1590.05 17.6632 1589.54 18.4102 1588.84 18.9042C1587.62 19.7652 1587.17 20.1442 1585.37 20.5802V20.5922C1585.31 20.6112 1585.26 20.6092 1585.2 20.6292C1583.34 21.2942 1584.18 23.6252 1586.1 23.1542C1586.24 23.1202 1586.43 23.0712 1586.58 23.0372C1589.48 22.1082 1591.35 23.2472 1593.25 24.7892C1594.98 26.1902 1595.29 28.4332 1595.12 30.6292C1594.87 33.7312 1596.21 33.1802 1598.23 32.7322C1602.3 31.8522 1604.52 37.7982 1602.19 39.8052C1599.98 41.5622 1600.86 42.9392 1603.13 43.3052C1608.17 44.1162 1608.98 50.3812 1608.17 53.9822C1607.22 58.2092 1610.67 61.5032 1614.59 61.1722C1613.45 63.8252 1610.03 63.7602 1608.32 63.2582C1606 62.5762 1605.33 64.9462 1606.86 66.4282C1608.07 67.6022 1608.72 69.0872 1608.78 70.0912C1608.85 71.2612 1608.34 72.5682 1607.38 73.2642C1606.35 74.0132 1604.81 74.0992 1603.47 73.8562C1602.57 73.6752 1601.76 74.2562 1601.54 75.1442C1601.34 75.9212 1601.83 76.8192 1602.52 77.7492C1603.81 79.4952 1604.44 81.0852 1603.53 82.9472C1602.91 84.2132 1601.62 85.9822 1598.03 85.7562C1596.93 85.6862 1595.42 87.4372 1596.58 88.6762C1599.75 92.0652 1595.96 96.1502 1591.47 94.5052C1590.53 94.1622 1589.17 94.4262 1589.72 96.4082C1590.94 100.845 1588.43 102.464 1585.49 102.813C1585.13 102.857 1584.66 102.763 1583.71 103.036C1583.11 103.207 1582.28 104.416 1584.47 104.906C1585.51 105.139 1587.03 105.16 1587.86 104.984C1591.12 104.289 1593.14 102.172 1591.8 96.6722C1598.42 100.838 1604.92 91.7422 1598.67 87.4242C1606 89.5252 1609.09 80.7742 1603.28 75.9592C1610.67 77.7632 1614.22 70.1282 1608.2 65.2492C1613.81 67.1802 1615.96 64.4752 1617.22 61.4942C1617.94 59.7832 1617.75 58.0762 1616.07 58.5532C1613.57 59.2672 1610.07 58.5232 1610.71 54.8482C1611.87 50.8492 1612.56 45.7162 1610.48 43.3012C1609.11 41.7152 1607.69 40.8592 1605.55 40.3022C1607.1 38.2562 1607.52 36.4102 1605.84 32.8762C1603.3 29.5102 1600.53 29.3982 1597.6 30.4932C1599.75 26.8312 1598.61 23.7082 1596.4 21.9132C1595.46 21.1492 1592.83 19.9412 1590.83 20.7882C1593.71 18.4842 1595 10.2322 1591.99 12.9432C1591.33 13.5912 1589.95 14.3162 1588.71 14.5202C1587.48 14.7232 1586.61 14.5192 1586.09 13.8402C1585.45 11.8882 1583.28 9.97319 1580.62 9.28519C1578.82 8.81919 1574.76 9.57319 1572.88 13.0002C1573.43 8.54119 1572.36 5.31819 1568.95 3.60619C1564.13 1.82619 1560.67 4.32718 1558.57 7.34418C1557.48 3.82018 1554.77 2.11618 1552.3 1.89818C1549.26 1.63018 1545.76 2.92819 1544.26 7.22319C1542.17 3.08319 1535.75 2.80619 1533.87 7.54319C1533.45 8.60719 1531.73 8.24619 1531.42 7.10619C1530.81 4.87319 1534.19 0.0101858 1531.37 0.000185821ZM1529.83 32.3922C1529.74 32.3972 1529.65 32.4112 1529.56 32.4352C1526.97 33.1432 1525.26 35.1972 1525.17 38.0052C1525.11 39.8882 1525.96 42.2972 1527.35 43.5082C1527.56 43.6802 1527.7 43.2842 1527.96 43.4092C1528.74 43.4642 1528.28 43.0782 1527.91 42.3172C1527.35 41.1182 1527.05 39.7862 1527.11 38.5252C1527.28 36.8042 1528.69 35.1902 1530.2 34.7752C1530.85 34.5982 1531.23 33.9322 1531.05 33.2852C1530.76 32.6122 1530.32 32.3852 1529.83 32.3922ZM1512.17 37.9202C1512.01 37.9002 1511.85 37.9122 1511.7 37.9552C1509.62 38.5252 1508.18 39.7392 1507.48 41.1992C1506.77 42.6592 1506.79 44.2862 1507.31 45.6832C1507.84 47.0812 1508.87 48.2962 1510.31 48.9042C1511 49.1972 1511.78 49.3072 1512.6 49.2522C1510.31 51.7112 1511.67 54.9002 1513.24 56.1882C1514.72 57.4002 1516.8 57.6822 1517.26 57.3522C1518.03 56.9662 1515.73 56.9442 1514.55 55.8602C1513.58 54.9822 1512.99 53.8792 1512.89 53.0632C1512.71 51.6092 1512.83 49.2652 1515.73 47.9592C1515.86 47.7272 1515.91 47.4582 1515.87 47.1952C1515.83 46.9322 1515.71 46.6882 1515.52 46.5022C1515.33 46.3162 1515.08 46.1992 1514.82 46.1662C1514.55 46.1332 1514.29 46.1862 1514.06 46.3202C1512.87 47.0082 1511.99 46.9812 1511.26 46.6702C1510.52 46.3582 1509.9 45.6722 1509.59 44.8342C1509.28 43.9962 1509.28 43.0542 1509.66 42.2542C1510.05 41.4542 1510.81 40.7172 1512.34 40.2952C1512.5 40.2532 1512.64 40.1822 1512.77 40.0842C1512.89 39.9862 1513 39.8632 1513.08 39.7242C1513.16 39.5862 1513.21 39.4332 1513.23 39.2752C1513.25 39.1172 1513.24 38.9562 1513.19 38.8032C1513.15 38.6492 1513.08 38.5052 1512.98 38.3792C1512.88 38.2532 1512.76 38.1492 1512.62 38.0702C1512.48 37.9912 1512.33 37.9392 1512.17 37.9202Z" fill="#C5C5DA"/>
<path d="M1498.87 410.229C1498.02 409.855 1497.44 409.378 1496.9 408.591C1496.61 408.172 1496.24 407.307 1496.06 406.61C1495.52 404.615 1495.44 402.41 1495.72 397.352C1495.76 396.469 1495.82 395.278 1495.85 394.706C1496.07 389.989 1496.87 385.836 1498.25 382.328L1498.58 381.495L1499.31 380.771C1502.48 377.62 1507.09 374.435 1511.98 371.094C1512.59 370.679 1521.52 365.241 1522.48 364.697C1522.11 364.979 1517.13 369.24 1513.94 374.053C1511.44 377.908 1509.18 382.59 1507.51 387.331C1507.29 387.976 1503.13 400.262 1502.05 403.483C1501.8 404.217 1501.71 404.442 1501.7 404.342C1501.67 404.127 1501.77 402.136 1501.87 400.972C1502.27 396.203 1503.32 390.896 1504.88 385.645C1505.38 383.969 1505.57 383.095 1505.61 382.196C1505.64 381.573 1505.58 381.301 1505.39 381.211C1505.29 381.162 1505.24 381.164 1505.1 381.221C1504.64 381.413 1503.71 382.712 1503.22 383.832C1502.76 384.896 1502.03 387.017 1501.53 388.731C1500.28 393.052 1499.5 397.552 1499.24 401.922C1499.18 403.047 1499.17 405.921 1499.24 406.921C1499.3 407.863 1499.41 408.915 1499.51 409.628L1499.59 410.163L1499.46 410.273C1499.39 410.333 1499.31 410.382 1499.28 410.382C1499.25 410.381 1499.07 410.313 1498.87 410.229Z" fill="#C5C5DA"/>
<path d="M1492.35 409.307C1492.18 409.277 1491.99 409.218 1491.84 409.137C1491.03 408.73 1490.18 407.492 1489.64 405.918L1489.52 405.578L1489.57 405.051C1490.18 398.36 1491.59 392.866 1493.86 388.294C1494.02 387.965 1494.16 387.707 1494.16 387.719C1494.16 387.732 1494.12 388.032 1494.06 388.385C1493.69 390.491 1493.49 392.337 1493.39 394.672C1493.37 395.101 1493.34 395.712 1493.32 396.029C1493.13 399.395 1493.11 399.871 1493.09 401.198C1493.05 404.302 1493.35 406.581 1494.04 408.334L1494.17 408.684L1494.07 408.775C1493.6 409.187 1492.91 409.401 1492.35 409.307Z" fill="#C5C5DA"/>
<path d="M1505.4 352.254C1504.65 349.385 1503.62 345.947 1502.03 341.032C1501.59 339.679 1501.24 338.546 1501.24 338.514C1501.24 338.482 1501.33 338.41 1501.66 338.178C1510.61 336.881 1520.93 328.616 1528.71 321.035C1529.28 327.384 1529.78 332.92 1529.78 332.978C1529.78 333.135 1527.7 335.355 1525.96 337.044C1523.94 339.007 1522.5 341.519 1519.88 343.496C1519.33 343.917 1519.53 344.584 1519.47 344.672C1519.15 345.159 1519.1 345.759 1519.35 346.338C1519.37 346.396 1519.65 348.179 1519.1 348.477C1518.76 347.749 1517.02 347.721 1516 348.004C1513.02 348.837 1509.04 351.301 1507.43 353.334C1507.09 353.769 1506.46 355.167 1506.27 355.661C1506.11 356.061 1506.29 356.291 1506.63 356.065C1506.51 356.201 1506.33 356.389 1506.3 356.334C1506.29 356.305 1506.13 355.771 1506.13 355.771L1505.6 353.009L1505.4 352.254Z" fill="#C5C5DA"/>
<path d="M1478.7 587.897C1478.1 586.643 1477.87 585.926 1477.69 584.744C1477.24 581.776 1476.34 578.907 1475.09 576.399C1474.93 576.094 1473.42 573.54 1473.43 573.533C1476.6 575.719 1480.07 576.884 1483.86 577.098L1484.09 577.099L1483.46 578.354C1481.88 581.508 1480.33 584.954 1479.18 587.88C1479.08 588.135 1478.98 588.357 1478.97 588.373C1478.95 588.39 1478.83 588.181 1478.7 587.897Z" fill="#F5F5F7"/>
<path d="M1419.07 610.363C1418.97 609.403 1418.87 608.413 1418.76 607.442C1418.34 603.385 1417.96 599.648 1417.96 599.642C1417.97 599.635 1418.43 599.68 1418.99 599.742C1427.02 600.639 1434.89 600.87 1442.1 600.421C1447.3 600.097 1452.36 599.417 1457.41 598.362C1457.88 598.264 1458.28 598.184 1458.3 598.184C1458.31 598.184 1458.35 598.698 1458.38 599.326C1458.48 601.379 1458.69 603.459 1459.01 605.667C1452.71 610.037 1423.89 613.496 1419.07 610.363Z" fill="#C5C5DA"/>
<path d="M1650.21 352.914C1650.54 350.124 1650.86 343.361 1650.65 340.018C1650.43 336.305 1652.32 335.514 1652.7 337.138C1653.42 340.237 1653.58 343.976 1653.62 346.972C1653.72 353.44 1651.97 361.123 1650.07 365.126C1647.59 370.321 1643.9 373.282 1645.8 368.724C1648.24 362.911 1649.33 360.344 1650.21 352.914Z" fill="#F5F5F7"/>
<path d="M1511.95 57.1282C1511.95 57.1212 1512.09 56.7012 1512.15 56.5372C1512.28 56.1532 1512.54 55.4782 1512.55 55.4812C1512.55 55.4812 1512.58 55.5172 1512.61 55.5592C1512.77 55.7512 1513 55.9932 1513.16 56.1222C1513.19 56.1522 1513.22 56.1792 1513.22 56.1812C1513.22 56.1832 1513.19 56.2022 1513.16 56.2242C1512.79 56.4552 1512.33 56.7932 1512.02 57.0742C1511.96 57.1272 1511.95 57.1342 1511.95 57.1282Z" fill="#232846"/>
<path d="M1532.9 119.821C1531.61 119.289 1530.24 118.582 1528.46 117.857C1523.79 115.952 1523.67 115.806 1522.35 114.814C1520.27 113.252 1518.44 110.906 1516.3 106.891C1512.22 99.2451 1508.75 89.2792 1508.12 81.9452C1508.19 80.1162 1507.7 79.4052 1508.73 74.5912C1509.25 73.5862 1509.18 71.8562 1508.93 70.0902C1508.67 67.5662 1508.74 66.0291 1509.15 63.8871C1509.36 62.9421 1509.42 62.5412 1509.78 62.2392C1509.78 62.2392 1511.32 57.8712 1511.33 57.8852C1510.62 62.4632 1510.5 63.7692 1510.56 66.2002C1510.59 67.2702 1511.23 69.6792 1511.31 70.2262C1511.6 72.2422 1511.64 72.9622 1511.54 74.0132C1511.44 75.0422 1511.37 75.4102 1510.94 77.2392C1510.71 78.2042 1510.69 78.4171 1510.69 80.1801C1510.69 82.3361 1510.84 83.8322 1511.32 86.5512C1512.34 92.3222 1514.61 95.5362 1517.59 101.616C1519.91 106.338 1522.34 110.856 1523.99 112.353C1525.07 113.324 1525.55 114.583 1528.69 115.905C1532.62 117.555 1533.19 117.851 1534.9 119.141C1536.22 120.134 1537.71 121.722 1538.16 122.488C1538.34 122.808 1538.51 123.44 1538.64 123.839C1537.37 122.469 1534.51 120.459 1532.9 119.821Z" fill="#F5F5F7"/>
<path d="M1511.85 57.1962C1510.7 57.9372 1509.55 58.6472 1508.41 60.0922L1507.73 63.8471C1508.99 62.8091 1510.28 61.8721 1511.66 61.3131" fill="#232846"/>
<path d="M1510.74 67.9852C1510.06 67.0342 1509.76 65.7772 1509.55 63.8752C1509.5 63.3532 1509.45 62.6382 1509.45 62.6062C1509.48 62.4382 1511.71 61.1732 1511.75 61.2902C1511.76 61.2962 1510.84 61.8332 1510.82 62.0422C1510.74 62.7532 1510.7 63.2222 1510.66 63.8942C1510.64 64.3602 1510.58 66.1762 1510.6 66.4292C1510.65 66.8472 1510.72 67.3122 1510.82 67.8042C1510.85 67.9572 1510.88 68.1732 1510.88 68.1762C1510.88 68.1792 1510.79 68.0532 1510.74 67.9852Z" fill="#C5C5DA"/>
<path d="M1363.66 705.276C1360.1 705.184 1355.93 704.717 1352.67 704.046C1351.36 703.776 1348.65 702.734 1348.46 702.425C1348.43 702.379 1350.32 700.579 1352.67 698.425C1368.05 684.302 1376.86 675.464 1385.4 665.605C1391.02 659.112 1396.54 651.739 1400.75 645.099C1403.55 640.689 1405.45 637.31 1408.07 632.085C1409.77 628.689 1410.59 627.337 1411.72 626.042C1413.5 624.015 1415.73 622.869 1417.92 622.87C1421.43 622.872 1424.26 624.35 1430.7 629.544C1434.34 632.485 1436 633.637 1438.32 634.844C1440.45 635.954 1442.51 636.69 1444.53 637.068C1445.25 637.202 1445.83 637.232 1447.63 637.23C1449.77 637.227 1449.87 637.219 1451.19 636.942C1452.8 636.601 1454.93 635.912 1456.68 635.158C1457.39 634.856 1459.5 633.861 1461.37 632.948C1467.82 629.803 1468.62 629.5 1469.39 629.919C1469.55 630.004 1472.61 632.937 1476.19 636.437C1479.77 639.937 1482.78 642.848 1482.88 642.906C1482.99 642.964 1483.31 643.279 1483.6 643.606L1484.12 644.201L1483.2 645.081C1482.23 646.003 1479.92 647.909 1475.25 651.639C1441.99 678.197 1413.71 694.696 1389.64 701.584C1383.38 703.376 1377.29 704.536 1371.57 705.023C1370.02 705.155 1365.52 705.35 1364.85 705.315C1364.68 705.306 1364.14 705.289 1363.66 705.276ZM1368.3 702.153C1373.98 701.866 1379.51 701.003 1385.58 699.458C1409.96 693.249 1439.11 676.595 1473.3 649.34C1477.81 645.743 1479.62 644.249 1479.62 644.114C1479.62 644.044 1477.1 641.528 1474.02 638.522L1468.42 633.057L1467.88 633.275C1467.29 633.513 1465.48 634.367 1461.5 636.281C1456.81 638.543 1454.25 639.46 1451.07 640.029C1450.06 640.209 1449.65 640.234 1447.67 640.231C1445.63 640.228 1445.3 640.206 1444.13 639.995C1440.57 639.349 1437.14 637.903 1433.71 635.599C1432.31 634.664 1430.9 633.603 1428.14 631.411C1425.44 629.265 1423.91 628.146 1422.69 627.42C1418.87 625.136 1416.21 625.367 1413.85 628.189C1412.97 629.242 1412.28 630.386 1411.15 632.681C1406.83 641.452 1402.24 648.887 1396.01 657.208C1386.66 669.695 1374.93 682.085 1356.1 699.358C1355.05 700.317 1354.19 701.134 1354.17 701.174C1354.14 701.26 1354.76 701.385 1356.36 701.617C1360.14 702.162 1364.37 702.352 1368.3 702.153Z" fill="#54547A"/>
<path d="M1527.3 359.992C1523.6 355.648 1521.43 352.547 1519.61 348.998C1518 346.319 1519.24 343.123 1520.58 341.889C1523.68 339.408 1526.52 336.817 1528.45 334.709L1529.91 333.118L1528.38 315.823L1526.84 298.529L1525.84 297.203C1518.33 287.209 1513.81 274.554 1511.93 258.312C1511.64 255.788 1511.62 253.777 1511.68 232.864C1511.72 218.691 1511.81 209.987 1511.91 209.707L1512.09 209.256L1512.41 209.657C1513.15 210.558 1513.99 214.124 1514.35 217.835C1514.49 219.224 1514.53 225.337 1514.5 237.016C1514.45 252.438 1514.48 254.459 1514.76 257.163C1516.4 272.782 1521.03 285.986 1528.22 295.501C1529.95 297.784 1532.56 300.799 1532.7 300.663C1532.75 300.611 1532.86 299.394 1532.94 297.958C1533.14 294.502 1533.42 292.482 1534.86 283.768C1536.22 275.601 1536.86 270.775 1537.17 266.482C1537.45 262.627 1537.29 253.244 1536.89 249.915C1536.5 246.733 1536.43 239.684 1536.78 239.077C1537.09 238.524 1537.31 238.641 1537.88 239.671C1538.66 241.08 1539.75 247.768 1540.16 253.686C1540.75 262.22 1540.16 269.775 1537.78 284.121C1536.09 294.359 1535.86 296.293 1535.85 300.65C1535.84 305.426 1536.34 308.311 1537.79 311.748C1538.44 313.306 1540.32 316.495 1540.66 316.605C1540.75 316.637 1541.04 316.315 1541.29 315.89C1541.94 314.775 1543.85 313.057 1545.15 312.423C1547.14 311.449 1548.64 311.185 1553.87 310.893C1556.49 310.746 1559.79 310.485 1561.2 310.313C1564.07 309.964 1563.11 310.357 1569.78 306.806C1571.43 305.925 1574.37 304.369 1576.32 303.349C1583.03 299.824 1585.55 298.081 1589.64 294.149C1592.64 291.258 1594.67 289.746 1597.18 288.535C1600.7 286.83 1604.09 286.203 1607.74 286.579L1609.86 286.798L1610.47 286.211C1610.81 285.888 1611.23 285.421 1611.41 285.173C1611.73 284.728 1611.73 284.707 1611.22 283.67C1610.67 282.545 1610.17 280.102 1610.17 278.538C1610.17 275.828 1611.37 273.42 1613.64 271.552L1614.2 271.097L1613.79 268.284C1611.85 254.868 1611.42 236.34 1612.65 219.863C1613.98 202.08 1617.16 184.457 1621.69 169.835C1623.05 165.44 1625.73 161.106 1625.73 163.293C1625.73 164.413 1624.87 168.344 1623.51 173.459C1620.22 185.796 1618.72 193.343 1617.25 205.014C1615.04 222.542 1614.68 242.859 1616.28 259.903C1616.66 263.993 1617.28 268.742 1617.44 268.742C1617.51 268.742 1618.95 267.853 1620.63 266.767C1624.34 264.375 1627.26 262.731 1627.8 262.731C1628.3 262.731 1628.5 263.408 1628.17 264.023C1627.97 264.403 1621.04 269.644 1616.87 272.566C1615.25 273.705 1614.28 274.72 1613.7 275.901C1613.31 276.689 1613.27 277.007 1613.27 278.818C1613.27 279.936 1613.38 281.194 1613.5 281.613L1613.73 282.376L1614.29 281.997C1615.56 281.145 1617.45 280.391 1618.81 280.192C1621.23 279.84 1624.02 280.653 1626.74 282.498C1629.62 284.451 1630.69 287.239 1628.29 286.517C1627.89 286.396 1626.73 285.812 1625.72 285.219C1622.82 283.527 1622.01 283.209 1620.36 283.108C1619.55 283.058 1618.6 283.106 1618.2 283.216C1617.36 283.443 1615.3 284.726 1615.3 285.017C1615.3 285.125 1614.9 285.66 1614.41 286.205C1613.93 286.751 1613.53 287.252 1613.53 287.319C1613.53 287.385 1613.91 287.493 1614.37 287.557C1615.07 287.655 1618.61 288.575 1622.67 289.715C1625.33 290.464 1624.73 291.803 1621.75 291.769C1620.05 291.749 1618.92 291.579 1614.41 290.667C1608.99 289.57 1607.8 289.397 1605.69 289.401C1601.75 289.408 1598.38 290.624 1594.89 293.294C1594.3 293.738 1592.63 295.259 1591.16 296.675C1586.98 300.719 1583.82 302.849 1576.42 306.622C1571.91 308.925 1572.07 308.836 1572.18 308.944C1572.29 309.056 1579.51 307.908 1582.55 307.293C1584.04 306.994 1585.4 306.749 1585.57 306.749C1585.96 306.749 1586.48 307.282 1586.48 307.675C1586.48 308.321 1584.6 309.416 1582.06 310.252C1579.2 311.193 1561.36 313.491 1554.31 313.826C1550.08 314.027 1548.49 314.22 1547.14 314.691C1545.29 315.343 1544.16 316.455 1542.97 318.816C1540.88 322.974 1537.29 328.533 1534.19 332.415C1532.02 335.138 1526.36 340.823 1523.83 342.902C1522.07 344.347 1521.71 346.547 1522.45 348.031C1524.3 351.732 1526.72 355.019 1529.29 357.799L1530.26 358.85L1529.03 359.67C1528.35 360.12 1527.78 360.484 1527.75 360.478C1527.73 360.472 1527.52 360.253 1527.3 359.992ZM1535.2 326.194C1537.02 323.499 1539.11 320.034 1539.11 319.698C1539.11 319.589 1538.64 318.843 1538.06 318.041C1535.46 314.415 1533.62 309.827 1533.17 305.89C1533.06 304.876 1533 304.757 1532.32 304.24C1531.92 303.933 1531.3 303.403 1530.93 303.062C1530.57 302.72 1530.24 302.478 1530.19 302.523C1530.12 302.594 1532.18 326.189 1532.49 328.844L1532.6 329.815L1533.03 329.286C1533.27 328.995 1534.25 327.604 1535.2 326.194Z" fill="#454568"/>
<path d="M1503.28 573.646C1499.91 573.443 1496.75 572.975 1493.75 572.237C1492.52 571.935 1487.89 570.526 1487.81 570.431C1487.78 570.388 1487.48 570.248 1487.16 570.12C1485.38 569.42 1482.48 568.017 1480.59 566.942C1476.57 564.647 1472.66 561.834 1467.81 557.742C1465.83 556.07 1463.57 554.058 1463.49 553.898C1463.43 553.783 1463.41 553.244 1463.41 551.82C1463.41 550.763 1463.42 549.898 1463.44 549.898C1463.46 549.898 1464.1 550.454 1464.86 551.133C1468.75 554.597 1470.91 556.438 1473.16 558.219C1479.44 563.199 1484.91 566.294 1490.91 568.264C1494.73 569.519 1498.57 570.237 1503 570.528C1505.3 570.679 1511.12 570.57 1511.27 570.373C1511.3 570.335 1512.23 568.392 1513.34 566.055C1514.45 563.717 1516.01 560.455 1516.8 558.805C1518.16 555.946 1518.82 554.48 1518.76 554.421C1518.68 554.341 1517.81 554.267 1516.31 554.212C1514.17 554.134 1513.93 554.116 1512.18 553.897C1500.86 552.479 1490.37 548.216 1480.97 541.216C1474.91 536.703 1469.27 531.013 1464.26 524.333L1463.34 523.117L1463.36 520.497C1463.37 518.818 1463.4 517.871 1463.44 517.859C1463.49 517.843 1465.4 520.596 1465.58 520.96C1465.81 521.431 1468.8 525.269 1470.25 526.961C1472.36 529.431 1475.43 532.602 1477.53 534.488C1478.75 535.58 1481.1 537.553 1482.25 538.442C1490.88 545.124 1500.15 549.166 1510.22 550.642C1512.16 550.925 1514.39 551.146 1515.37 551.153C1515.65 551.155 1516.62 551.198 1517.53 551.248C1519.04 551.332 1519.24 551.356 1519.78 551.523C1520.73 551.817 1521.3 552.286 1521.68 553.078C1521.86 553.465 1521.87 553.536 1521.87 554.179C1521.87 555.195 1521.73 555.554 1519.66 559.883C1518.94 561.387 1517.27 564.893 1515.94 567.676C1514.25 571.219 1513.47 572.798 1513.33 572.947C1513.09 573.194 1512.77 573.372 1512.47 573.426C1511.32 573.628 1505.36 573.771 1503.28 573.646Z" fill="#4E4E75"/>
<path d="M1363.38 722.228C1358.43 721.913 1354.26 721.086 1350.47 719.67C1345.17 717.685 1342.61 715.504 1342.16 712.596C1341.91 710.988 1342.56 709.077 1344.02 707.117C1344.96 705.867 1346.19 704.489 1347.34 703.416L1348.23 702.59L1349.38 703.129C1350.01 703.425 1350.67 703.701 1350.84 703.744C1351.12 703.814 1350.99 703.972 1349.19 705.781C1347.1 707.886 1346.17 709.032 1345.56 710.276C1344.72 711.965 1344.96 713.05 1346.42 714.26C1348.08 715.63 1352.46 717.435 1356.07 718.231C1359.37 718.96 1361.18 719.113 1366.56 719.113C1372.65 719.114 1375.8 718.838 1382.38 717.73C1418.64 711.615 1466.05 688.22 1495.04 662.134L1496.7 660.637L1496.04 659.983C1495.67 659.623 1492.42 656.449 1488.81 652.93C1485.2 649.41 1482.23 646.488 1482.21 646.435C1482.17 646.31 1484.19 644.408 1484.32 644.456C1484.5 644.524 1499.75 659.458 1500.03 659.848C1500.34 660.276 1500.4 660.954 1500.15 661.387C1499.98 661.696 1498.21 663.353 1495.5 665.737C1474.87 683.913 1444.86 701.129 1414.88 711.993C1399.48 717.571 1385.75 720.902 1373.63 721.998C1371.6 722.181 1364.97 722.33 1363.38 722.228Z" fill="#54547A"/>
<path d="M1377.84 672.05C1376.6 669.463 1376.07 665.443 1376.32 660.468C1376.85 649.688 1380.31 637.502 1385.62 627.66C1390.4 618.807 1396.3 611.061 1405.58 601.426L1408.66 598.229L1406.27 597.821C1402.02 597.095 1392.51 595.161 1392.13 594.944C1391.93 594.828 1391.66 594.555 1391.53 594.338C1391.3 593.948 1391.31 593.801 1392.12 583.981C1393.01 573.207 1392.96 573.532 1393.75 573.108C1394.12 572.91 1394.37 572.909 1397.7 573.099C1401.83 573.335 1403.88 573.436 1405.19 573.469C1405.7 573.481 1406.15 573.525 1406.19 573.565C1406.25 573.638 1410.76 573.901 1417.81 574.241C1435.6 575.1 1448.61 575.062 1460.75 574.116C1462.06 574.015 1463.52 573.901 1464 573.863C1464.71 573.808 1464.96 573.839 1465.31 574.03C1466.18 574.505 1466.14 574.113 1466.37 584.367C1466.63 596.302 1466.65 595.202 1466.19 595.723C1465.85 596.104 1465.61 596.205 1463.97 596.66C1462.96 596.941 1461.96 597.209 1461.76 597.256L1461.4 597.341L1461.48 599.229C1461.61 602.394 1462.14 606.254 1462.95 610.117C1463.53 612.859 1465.4 619.932 1465.6 620.129C1465.69 620.219 1477.78 598.934 1478.14 598.054C1478.61 596.89 1478.84 595.447 1478.7 594.548C1478.56 593.72 1478.43 593.445 1477.5 592.002C1475.73 589.257 1475.12 587.74 1474.57 584.756C1473.75 580.319 1472.07 576.512 1469.68 573.696C1468.29 572.06 1466.08 570.622 1464.42 570.281C1463.58 570.108 1463.56 570.059 1463.56 568.289C1463.56 567.005 1463.51 567.039 1464.94 567.373C1469.12 568.352 1472.6 571.548 1475.13 576.742C1476.34 579.225 1476.97 581.304 1477.73 585.315C1477.91 586.231 1478.53 587.911 1478.86 588.363C1479 588.56 1479.04 588.52 1479.25 587.975C1480.23 585.338 1482.75 579.874 1484.53 576.492C1485.51 574.639 1487.33 571.398 1487.79 570.7C1487.88 570.566 1488.19 570.623 1489.35 570.996L1490.79 571.459L1490.14 572.538C1487.36 577.125 1484.22 583.531 1481.88 589.397L1480.92 591.802L1481.27 592.647C1481.56 593.364 1481.62 593.71 1481.66 594.929C1481.7 596.15 1481.66 596.548 1481.4 597.569C1481.23 598.23 1480.89 599.203 1480.64 599.731C1480.4 600.258 1477.18 605.972 1473.49 612.427L1466.79 624.164C1466.79 624.164 1463.24 622.627 1463.2 622.617C1460.39 613.672 1458.83 606.055 1458.48 599.646C1458.41 598.267 1458.37 598.058 1458.2 598.108C1457.72 598.248 1453.84 598.967 1452.06 599.247C1442.16 600.795 1431.11 600.961 1419.71 599.732C1418.72 599.625 1417.9 599.556 1417.88 599.578C1417.86 599.605 1420.24 622.487 1420.31 622.9C1420.31 622.919 1420.17 622.898 1420 622.855C1419.82 622.811 1419.14 622.74 1418.47 622.696L1417.26 622.617L1416.04 610.944C1415.37 604.523 1414.79 599.241 1414.76 599.205C1414.72 599.169 1414.17 599.062 1413.54 598.968L1412.39 598.798L1410.53 600.645C1400.9 610.199 1394.35 618.39 1389.34 627.124C1388.56 628.478 1388.23 629.206 1387.9 630.31C1386.61 634.612 1385.77 639.834 1385.61 644.679C1385.4 650.988 1386.68 656.823 1388.94 659.781L1389.45 660.446L1388.54 661.564C1388.04 662.179 1387.58 662.664 1387.51 662.64C1387.28 662.569 1386.28 661.254 1385.65 660.213C1383.53 656.69 1382.39 650.946 1382.6 644.804C1382.65 643.505 1382.63 642.818 1382.56 642.948C1382.15 643.669 1380.68 649.791 1380.13 653.054C1379.48 656.932 1379.38 658.245 1379.38 662.492C1379.38 666.883 1379.48 667.857 1380.17 669.789L1380.51 670.767L1379.43 671.938L1378.35 673.108L1377.84 672.05ZM1439.25 597.428C1445.39 597.166 1450.27 596.595 1455.88 595.481C1457.98 595.064 1463.41 593.751 1463.53 593.631C1463.6 593.564 1463.2 577.028 1463.13 576.958C1463.11 576.93 1461.8 576.996 1460.23 577.104C1448.05 577.94 1436.52 578.017 1421 577.363C1415.88 577.148 1412.76 576.983 1402.91 576.41C1399.08 576.187 1395.91 576.041 1395.86 576.086C1395.82 576.131 1395.48 579.809 1395.11 584.259C1394.6 590.316 1394.47 592.373 1394.58 592.441C1394.75 592.545 1403.36 594.251 1406.5 594.802C1418.69 596.941 1429.79 597.831 1439.25 597.428Z" fill="#4E4E75"/>
<path d="M1411.84 598.758L1408.68 598.281C1408.68 598.281 1400.62 606.612 1400.57 606.735C1405.24 609.731 1410.96 609.627 1411.84 613.372C1412.7 617.012 1408.15 617.483 1404.96 623.268C1400.02 632.214 1390.31 649.241 1385.01 659.303C1385.01 659.303 1387.67 662.588 1387.86 662.534C1395.22 653.377 1403.56 641.44 1408.64 630.804C1410.53 626.842 1412.65 624.443 1415.14 623.383C1415.83 623.092 1416.52 622.92 1417.22 622.84C1418.27 622.857 1419.31 622.881 1420.35 623.102L1417.89 599.556C1417.12 599.453 1412.6 598.87 1411.84 598.758Z" fill="#454568"/>
<path d="M1463.93 567.178C1463.87 567.177 1463.83 567.182 1463.79 567.193C1463.55 567.262 1463.56 567.567 1463.56 568.289C1463.56 570.059 1463.58 570.108 1464.42 570.281C1466.08 570.622 1468.29 572.059 1469.68 573.695C1472.07 576.511 1473.75 580.318 1474.57 584.756C1475.04 587.328 1475.44 588.665 1476.67 590.742C1477.02 588.313 1477.4 586.363 1477.73 585.314C1476.97 581.304 1476.34 579.225 1475.13 576.742C1472.6 571.548 1469.12 568.351 1464.94 567.373C1464.58 567.289 1464.32 567.225 1464.12 567.195C1464.05 567.184 1463.98 567.178 1463.93 567.178ZM1476.67 590.742C1473.54 601.354 1475.87 586.388 1476.67 590.742V590.742ZM1475.64 601.816C1475.23 602.98 1474.78 604.068 1474.29 605.004C1470.67 611.419 1465.79 619.954 1465.64 620.053L1466.82 624.097L1473.49 612.428C1474.19 611.207 1474.87 610.014 1475.52 608.877C1475.47 606.539 1475.53 604.148 1475.64 601.816Z" fill="#454568"/>
<path d="M1463.33 570.171C1465.97 570.395 1468.21 571.938 1470.12 574.349C1472.45 577.294 1474.08 581.499 1474.63 585.461C1474.91 587.51 1475.81 589.369 1476.71 590.881C1476.62 591.242 1475.63 598.423 1475.68 602.458L1465.61 620.089C1465.91 620.916 1467.01 622.584 1466.8 624.19C1466.82 624.177 1465.11 627.173 1464.72 627.362L1462.87 621.401C1460.41 614.812 1458.5 604.564 1458.4 598.036C1459.76 597.693 1464.18 596.697 1465.55 596.291C1465.88 596.194 1466.16 595.991 1466.36 595.714C1466.57 595.437 1466.67 595.102 1466.66 594.759L1466.21 575.287C1466.21 575.074 1466.16 574.864 1466.07 574.67C1465.98 574.476 1465.85 574.303 1465.69 574.161C1465.53 574.018 1465.34 573.91 1465.14 573.843C1464.94 573.775 1464.73 573.75 1464.51 573.769C1464.12 573.803 1463.73 573.834 1463.33 573.867V570.171Z" fill="#454568"/>
<path d="M1475.69 601.809C1475.72 599.901 1475.89 597.598 1476.23 594.594C1476.39 593.123 1476.67 591.008 1476.71 590.941C1476.72 590.926 1476.75 590.966 1476.81 591.073C1476.98 591.362 1477.38 591.982 1477.78 592.581C1478.23 593.273 1478.36 593.514 1478.49 593.891C1478.58 594.156 1478.62 594.343 1478.66 594.64C1478.7 594.914 1478.7 595.519 1478.66 595.828C1478.56 596.597 1478.35 597.35 1477.99 598.211C1477.75 598.759 1477.44 599.354 1476.55 600.914C1476.08 601.739 1475.69 602.417 1475.68 602.422C1475.68 602.426 1475.68 602.15 1475.68 601.809H1475.69Z" fill="#4E4E75"/>
<path d="M1511.5 394.117C1511.5 394.117 1513.04 407.556 1513.25 414.117C1513.53 422.888 1512.84 438.147 1512.25 439.867C1510.5 444.932 1507.09 445.979 1507 441.367C1507 441.367 1506.32 424.2 1506.5 415.617C1506.64 408.772 1507.49 396.384 1507.75 395.117C1508.76 390.278 1510.92 390.005 1511.5 394.117Z" fill="#454568"/>
<path d="M1467.96 528.907C1466.93 527.699 1465.35 525.72 1464.25 524.273L1463.38 523.118L1463.4 520.586C1463.41 519.194 1463.44 518.034 1463.46 518.01C1463.51 517.96 1464.28 519.027 1465.08 520.262C1465.73 521.259 1466.82 522.747 1467.92 524.128L1468.72 525.14L1468.76 527.488C1468.78 528.779 1468.79 529.835 1468.78 529.834C1468.76 529.833 1468.39 529.416 1467.96 528.907Z" stroke="#A93434" stroke-width="0.0125" stroke-linecap="round" stroke-linejoin="round"/>
<path d="M1468.34 554.104C1467.81 553.639 1466.48 552.467 1465.39 551.5L1463.41 549.742V536.533V523.323L1464.2 524.376C1465.22 525.746 1466.92 527.862 1467.98 529.098L1468.82 530.08L1468.87 532.442C1468.89 533.741 1469.01 539.333 1469.12 544.867C1469.24 550.401 1469.33 554.934 1469.32 554.94C1469.31 554.946 1468.88 554.569 1468.34 554.104Z" fill="#454568"/>
<path d="M1468.66 558.408C1466.02 556.204 1463.54 553.99 1463.5 553.811C1463.45 553.544 1463.42 551.654 1463.46 550.825L1463.5 549.97L1465.72 551.939C1466.94 553.022 1467.99 553.923 1468.05 553.941C1468.11 553.96 1468.16 553.998 1468.16 554.025C1468.16 554.053 1468.42 554.302 1468.74 554.579L1469.33 555.083L1469.37 557.025C1469.4 558.094 1469.41 558.977 1469.4 558.988C1469.39 558.999 1469.05 558.738 1468.66 558.408Z" fill="#3B3B5F"/>
<path d="M1467.99 528.871C1466.79 527.46 1465.15 525.405 1463.89 523.729L1463.41 523.092L1463.42 521.823C1463.42 521.125 1463.44 519.992 1463.46 519.305L1463.5 518.056L1463.82 518.501C1464 518.745 1464.58 519.575 1465.1 520.344C1466.02 521.698 1467.21 523.305 1468.18 524.518L1468.65 525.107L1468.69 525.612C1468.71 525.89 1468.72 526.92 1468.71 527.902L1468.69 529.687L1467.99 528.871Z" fill="#454568"/>
<path d="M1467.77 523.787C1467.27 523.144 1466.63 522.301 1466.35 521.916L1465.83 521.214L1467.13 517.31C1467.85 515.163 1468.44 513.413 1468.45 513.423C1468.48 513.446 1468.72 524.918 1468.7 524.94C1468.69 524.949 1468.27 524.431 1467.77 523.787Z" fill="#191F3D"/>
<path d="M1465.26 520.407C1465 519.999 1464.49 519.251 1464.13 518.744C1463.76 518.237 1463.47 517.804 1463.47 517.782C1463.47 517.76 1464.55 514.55 1465.87 510.648L1468.28 503.554V504.023C1468.28 504.281 1468.32 506.418 1468.37 508.771L1468.47 513.05L1467.12 517.099C1466.37 519.326 1465.76 521.148 1465.75 521.148C1465.74 521.148 1465.52 520.815 1465.26 520.407Z" fill="#191F3D"/>
<path d="M1380.64 670.849C1380.64 670.841 1380.61 670.771 1380.57 670.692L1380.51 670.549L1379.96 668.919C1381.68 664.756 1384.62 660.664 1385.11 659.525C1385.13 659.481 1385.13 659.481 1385.22 659.65C1385.85 660.833 1386.65 661.967 1387.46 662.816L1387.57 662.937L1387.37 663.175C1387.26 663.306 1387.06 663.544 1386.93 663.703C1385.13 665.847 1383.22 668.039 1381.11 670.359C1380.63 670.893 1380.65 670.865 1380.64 670.849Z" fill="#C5C5DA"/>
<path d="M1463.44 549.898C1463.42 549.898 1463.41 550.763 1463.41 551.82C1463.41 553.243 1463.43 553.782 1463.49 553.898C1463.57 554.058 1465.83 556.07 1467.81 557.742C1472.66 561.834 1476.57 564.648 1480.59 566.943C1482.48 568.017 1485.38 569.419 1487.16 570.119C1487.48 570.247 1487.78 570.388 1487.81 570.431C1487.89 570.526 1492.52 571.934 1493.75 572.236C1496.75 572.975 1499.91 573.443 1503.28 573.646C1505.36 573.771 1511.32 573.628 1512.46 573.426C1512.77 573.372 1513.09 573.194 1513.33 572.947C1513.47 572.798 1514.25 571.218 1515.94 567.676C1517.27 564.893 1518.94 561.386 1519.66 559.883C1521.73 555.553 1521.97 555.132 1521.97 554.117C1521.97 553.474 1521.92 552.512 1521.74 552.125C1521.5 551.617 1521.01 550.894 1520.56 550.613C1519.4 550.263 1519.35 551.216 1519.45 552.801C1519.63 552.825 1518.74 554.396 1518.76 554.422C1518.82 554.48 1518.16 555.946 1516.8 558.804C1516.01 560.454 1514.45 563.717 1513.34 566.054C1512.23 568.392 1511.3 570.335 1511.27 570.373C1511.12 570.57 1505.3 570.678 1503 570.527C1498.57 570.236 1494.73 569.518 1490.91 568.263C1484.91 566.293 1479.44 563.198 1473.16 558.219C1470.91 556.438 1468.75 554.596 1464.86 551.133C1464.1 550.453 1463.46 549.898 1463.44 549.898Z" fill="#2E2B53"/>
<path d="M1417.92 622.871C1415.73 622.869 1413.5 624.014 1411.72 626.041C1410.59 627.337 1409.77 628.69 1408.07 632.086C1405.45 637.311 1403.55 640.689 1400.75 645.099C1396.54 651.739 1391.02 659.112 1385.4 665.605C1383.64 667.635 1381.86 669.623 1380.02 671.621C1379.35 673.415 1378.78 675.129 1383.3 672.494C1388.11 667.206 1392.27 662.208 1396.01 657.209C1402.24 648.887 1406.83 641.453 1411.15 632.681C1412.28 630.387 1412.97 629.242 1413.85 628.189C1416.21 625.368 1418.87 625.136 1422.69 627.42C1423.91 628.146 1425.44 629.266 1428.14 631.412C1430.9 633.604 1432.31 634.664 1433.71 635.599C1437.15 637.903 1440.57 639.349 1444.13 639.996C1445.3 640.207 1445.63 640.227 1447.67 640.23C1449.65 640.233 1450.06 640.209 1451.07 640.029C1454.25 639.461 1456.81 638.543 1461.5 636.281C1465.48 634.367 1467.29 633.513 1467.88 633.275L1468.42 633.056L1474.02 638.521C1477.1 641.527 1479.62 644.045 1479.62 644.115L1479.6 644.133C1482.76 645.392 1482.76 643.696 1482.39 642.424C1481.9 641.988 1479.5 639.677 1476.19 636.437C1472.61 632.937 1469.55 630.003 1469.39 629.918C1468.62 629.499 1467.82 629.802 1461.37 632.947C1459.5 633.86 1457.39 634.856 1456.69 635.158C1454.93 635.912 1452.8 636.601 1451.19 636.941C1449.87 637.218 1449.77 637.227 1447.63 637.23C1445.83 637.233 1445.25 637.202 1444.53 637.068C1442.51 636.69 1440.45 635.953 1438.32 634.844C1436 633.636 1434.35 632.486 1430.7 629.545C1424.26 624.351 1421.43 622.873 1417.92 622.871Z" fill="#2E2B53"/>
<path d="M1461.4 597.342L1461.76 597.256C1461.96 597.209 1462.96 596.941 1463.97 596.66C1465.61 596.205 1465.85 596.103 1466.19 595.723C1466.65 595.202 1466.63 596.303 1466.37 584.367C1466.14 574.113 1466.18 574.505 1465.31 574.029C1464.96 573.839 1464.71 573.808 1464 573.863C1463.89 573.872 1463.45 573.906 1463.25 573.922V579.492H1463.21C1463.34 583.15 1463.59 593.574 1463.53 593.631C1463.41 593.751 1457.98 595.065 1455.88 595.482C1450.27 596.596 1445.39 597.166 1439.25 597.428C1429.79 597.831 1418.69 596.942 1406.5 594.803C1403.36 594.252 1394.75 592.546 1394.58 592.441C1394.47 592.374 1394.61 590.316 1395.11 584.26C1395.48 579.809 1395.73 576.805 1395.86 576.086C1396.22 574.222 1396.84 573.028 1398.56 573.117C1400.29 573.207 1400.69 572.183 1400.35 571.454C1400.13 571.003 1399.57 570.76 1399.06 570.679C1398.16 570.534 1397.11 570.56 1396.39 570.6C1393.71 570.746 1393.04 572.724 1392.84 574.032C1392.65 575.368 1392.56 578.67 1392.12 583.981C1391.31 593.801 1391.3 593.948 1391.53 594.338C1391.66 594.555 1391.93 594.828 1392.13 594.943C1392.51 595.16 1402.02 597.095 1406.27 597.82L1408.66 598.229C1408.81 598.066 1412.39 598.799 1412.39 598.799L1413.54 598.969C1414.17 599.063 1414.72 599.169 1414.75 599.205C1428.88 600.842 1440.21 601.416 1452.06 599.246C1453.85 598.967 1457.72 598.247 1458.2 598.107L1461.4 597.342Z" fill="#2E2B53"/>
</svg>
