<svg width="54" height="20" viewBox="0 0 54 20" fill="none" xmlns="http://www.w3.org/2000/svg">
<path d="M10.112 19L4.016 11.536V19H0.656V2.248H4.016V9.76L10.112 2.248H14.168L7.256 10.552L14.36 19H10.112ZM16.0661 12.304C16.0661 10.96 16.3301 9.768 16.8581 8.728C17.4021 7.688 18.1301 6.888 19.0421 6.328C19.9701 5.768 21.0021 5.488 22.1381 5.488C23.1301 5.488 23.9941 5.688 24.7301 6.088C25.4821 6.488 26.0821 6.992 26.5301 7.6V5.704H29.9141V19H26.5301V17.056C26.0981 17.68 25.4981 18.2 24.7301 18.616C23.9781 19.016 23.1061 19.216 22.1141 19.216C20.9941 19.216 19.9701 18.928 19.0421 18.352C18.1301 17.776 17.4021 16.968 16.8581 15.928C16.3301 14.872 16.0661 13.664 16.0661 12.304ZM26.5301 12.352C26.5301 11.536 26.3701 10.84 26.0501 10.264C25.7301 9.672 25.2981 9.224 24.7541 8.92C24.2101 8.6 23.6261 8.44 23.0021 8.44C22.3781 8.44 21.8021 8.592 21.2741 8.896C20.7461 9.2 20.3141 9.648 19.9781 10.24C19.6581 10.816 19.4981 11.504 19.4981 12.304C19.4981 13.104 19.6581 13.808 19.9781 14.416C20.3141 15.008 20.7461 15.464 21.2741 15.784C21.8181 16.104 22.3941 16.264 23.0021 16.264C23.6261 16.264 24.2101 16.112 24.7541 15.808C25.2981 15.488 25.7301 15.04 26.0501 14.464C26.3701 13.872 26.5301 13.168 26.5301 12.352ZM35.2597 4.12C34.6677 4.12 34.1717 3.936 33.7717 3.568C33.3877 3.184 33.1957 2.712 33.1957 2.152C33.1957 1.592 33.3877 1.128 33.7717 0.759999C34.1717 0.375999 34.6677 0.183999 35.2597 0.183999C35.8517 0.183999 36.3397 0.375999 36.7237 0.759999C37.1237 1.128 37.3237 1.592 37.3237 2.152C37.3237 2.712 37.1237 3.184 36.7237 3.568C36.3397 3.936 35.8517 4.12 35.2597 4.12ZM36.9157 5.704V19H33.5557V5.704H36.9157ZM46.4994 19.216C45.2194 19.216 44.0674 18.936 43.0434 18.376C42.0194 17.8 41.2114 16.992 40.6194 15.952C40.0434 14.912 39.7554 13.712 39.7554 12.352C39.7554 10.992 40.0514 9.792 40.6434 8.752C41.2514 7.712 42.0754 6.912 43.1154 6.352C44.1554 5.776 45.3154 5.488 46.5954 5.488C47.8754 5.488 49.0354 5.776 50.0754 6.352C51.1154 6.912 51.9314 7.712 52.5234 8.752C53.1314 9.792 53.4354 10.992 53.4354 12.352C53.4354 13.712 53.1234 14.912 52.4994 15.952C51.8914 16.992 51.0594 17.8 50.0034 18.376C48.9634 18.936 47.7954 19.216 46.4994 19.216ZM46.4994 16.288C47.1074 16.288 47.6754 16.144 48.2034 15.856C48.7474 15.552 49.1794 15.104 49.4994 14.512C49.8194 13.92 49.9794 13.2 49.9794 12.352C49.9794 11.088 49.6434 10.12 48.9714 9.448C48.3154 8.76 47.5074 8.416 46.5474 8.416C45.5874 8.416 44.7794 8.76 44.1234 9.448C43.4834 10.12 43.1634 11.088 43.1634 12.352C43.1634 13.616 43.4754 14.592 44.0994 15.28C44.7394 15.952 45.5394 16.288 46.4994 16.288Z" fill="#FA4A7F"/>
</svg>
