<svg width="1190" height="528" viewBox="0 0 1190 528" fill="none" xmlns="http://www.w3.org/2000/svg">
<g clip-path="url(#clip0_833_3550)">
<path d="M66.4196 186H4.76367C2.55453 186 0.763672 187.791 0.763672 190V212.816C0.763672 215.025 2.55453 216.816 4.76367 216.816H66.4196C68.6287 216.816 70.4196 215.025 70.4196 212.816V190C70.4196 187.791 68.6287 186 66.4196 186Z" fill="#C5C5DA"/>
<path d="M106.133 227.972H44.4766C42.2674 227.972 40.4766 229.763 40.4766 231.972V254.788C40.4766 256.997 42.2674 258.788 44.4766 258.788H106.133C108.342 258.788 110.133 256.997 110.133 254.788V231.972C110.133 229.763 108.342 227.972 106.133 227.972Z" fill="#C5C5DA"/>
<path d="M1185.66 44H1124C1121.79 44 1120 45.7909 1120 48V70.816C1120 73.0251 1121.79 74.816 1124 74.816H1185.66C1187.87 74.816 1189.66 73.0251 1189.66 70.816V48C1189.66 45.7909 1187.87 44 1185.66 44Z" fill="#C5C5DA"/>
<path d="M975.42 373H913.764C911.555 373 909.764 374.791 909.764 377V399.816C909.764 402.025 911.555 403.816 913.764 403.816H975.42C977.629 403.816 979.42 402.025 979.42 399.816V377C979.42 374.791 977.629 373 975.42 373Z" fill="#C5C5DA"/>
<path d="M1015.13 414.972H953.477C951.267 414.972 949.477 416.763 949.477 418.972V441.788C949.477 443.997 951.267 445.788 953.477 445.788H1015.13C1017.34 445.788 1019.13 443.997 1019.13 441.788V418.972C1019.13 416.763 1017.34 414.972 1015.13 414.972Z" fill="#C5C5DA"/>
<path d="M293.741 13.6515C285.038 13.4961 241.555 10.7192 241.555 10.7192C241.555 10.7192 252.895 513.002 261.604 513.157C270.307 513.313 491.368 485.255 491.368 485.255L732.096 493.555L940.443 527.281L937.727 29.1529L751.167 21.1524L440.704 17.6083L293.741 13.6515Z" fill="#C5C5DA"/>
<path d="M753.998 0H393.998V503H753.998V0Z" fill="#454568"/>
<path d="M739.998 16H407.998V482H739.998V16Z" fill="#232846"/>
<path d="M915.338 504.569L750.103 487.765L748.766 10.2042L916.605 7.48755C916.605 7.48755 915.513 356.024 916.248 373.125C917.148 394.075 915.581 420.868 915.042 441.92C914.754 453.17 915.248 483.178 915.338 504.569Z" fill="#63638C"/>
<path d="M885.107 31.0879L769.168 35.1719C769.168 35.1719 769.358 42.9403 769.376 43.6543C808.014 44.0943 846.658 43.0911 885.203 40.6582L885.107 31.0879ZM885.222 42.6523C846.688 45.0867 808.054 46.0953 769.426 45.6543C769.443 46.354 769.566 51.3443 769.594 52.4551C808.167 52.9527 846.756 52.3946 885.302 50.7871L885.222 42.6523ZM885.323 52.7871C846.786 54.3954 808.209 54.9569 769.643 54.4609C769.711 57.2102 769.908 65.2252 770.019 69.7168C808.515 70.1289 847.023 69.3612 885.468 67.418L885.323 52.7871ZM885.487 69.4141C847.053 71.3602 808.559 72.1256 770.069 71.7188C770.177 76.1188 770.283 80.4622 770.42 86.0254C808.808 87.1339 847.242 87.1029 885.651 85.9336L885.487 69.4141ZM885.67 87.9414C847.275 89.1093 808.851 89.1434 770.469 88.0371C770.625 94.3341 770.68 96.5798 770.859 103.838C809.169 102.439 847.476 101.045 885.786 99.6465L885.67 87.9414ZM885.806 101.641C847.506 103.036 809.209 104.434 770.908 105.832C771.055 111.783 771.069 112.332 771.223 118.627C809.466 117.782 847.706 116.936 885.949 116.092L885.806 101.641ZM885.97 118.09C847.736 118.934 809.505 119.779 771.271 120.623C771.465 128.552 771.468 128.719 771.664 136.734C809.83 137.054 847.996 137.373 886.162 137.693L885.97 118.09ZM771.712 138.756C771.889 146.033 771.892 146.61 772.061 153.562C810.162 153.624 848.256 154.093 886.334 154.938L886.183 139.713C848.026 139.394 809.868 139.075 771.712 138.756ZM772.109 155.578C772.291 163.115 772.332 165.119 772.492 171.793C810.497 171.461 848.496 170.645 886.477 169.396L886.353 156.955C848.285 156.111 810.2 155.64 772.109 155.578ZM886.496 171.396C848.524 172.646 810.535 173.462 772.54 173.795C772.682 179.727 772.773 183.678 772.887 188.51C810.809 188.865 848.738 188.733 886.662 188.135L886.496 171.396ZM886.683 190.145C848.768 190.743 810.847 190.88 772.935 190.523C773.021 194.175 773.145 199.295 773.208 202.062C782.725 201.92 792.241 201.853 801.754 201.896C830.155 202.026 858.526 203.039 886.828 204.828L886.683 190.145ZM801.712 203.898C792.229 203.855 782.742 203.922 773.255 204.064C773.331 207.401 773.577 217.348 773.607 218.885C811.39 218.848 849.178 218.813 886.966 218.779L886.847 206.797C858.525 205.004 830.132 204.028 801.712 203.898ZM886.987 220.795C849.212 220.832 811.433 220.867 773.654 220.9C773.666 221.576 773.845 228.734 773.841 228.811L887.075 229.701L886.987 220.795Z" fill="#232846"/>
<path d="M776.531 266.012C776.531 266.012 776.73 279.313 776.764 281.533C813.066 283.3 849.451 283.856 885.832 283.176L885.826 268.549L776.531 266.012ZM776.795 283.547C776.811 284.64 776.874 288.921 776.896 290.383C813.16 292.164 849.487 293.056 885.836 293.047L885.834 285.186C849.462 285.866 813.089 285.312 776.795 283.547ZM776.926 292.395C776.979 295.9 777.08 302.655 777.156 307.709C813.338 309.306 849.589 309.915 885.844 309.512L885.838 295.057C849.498 295.066 813.181 294.171 776.926 292.395ZM777.186 309.725C777.26 314.688 777.314 318.255 777.404 324.256C813.481 326.468 849.646 327.719 885.852 328.008L885.844 311.521C849.598 311.926 813.358 311.32 777.186 309.725ZM777.434 326.262C777.53 332.67 777.555 334.32 777.662 341.477C813.727 341.55 849.791 341.624 885.855 341.697L885.851 330.006C849.655 329.719 813.498 328.472 777.434 326.262ZM777.691 343.494C777.784 349.681 777.79 350.051 777.887 356.514C813.878 357.093 849.872 357.671 885.863 358.25L885.857 343.715C849.802 343.642 813.747 343.567 777.691 343.494ZM777.918 358.525C778.039 366.644 778.036 366.839 778.156 374.949C814.061 376.585 849.966 378.223 885.871 379.859L885.863 360.26C849.882 359.681 813.899 359.104 777.918 358.525ZM778.186 376.951C778.293 384.193 778.294 384.901 778.395 391.766C814.255 393.246 850.084 395.053 885.879 397.193L885.873 381.859C849.977 380.224 814.081 378.587 778.186 376.951ZM778.424 393.766C778.531 401.1 778.557 403.299 778.65 409.768C814.381 410.711 850.128 411.266 885.885 411.432L885.881 399.197C850.095 397.057 814.272 395.248 778.424 393.766ZM778.68 411.785C778.765 417.729 778.825 422.003 778.893 426.807C814.533 428.36 850.202 429.509 885.893 430.26L885.887 413.449C850.139 413.285 814.401 412.73 778.68 411.785ZM778.92 428.812C778.969 432.308 779.046 437.503 779.082 440.16C814.826 441.354 850.462 443.804 885.9 447.494L885.892 432.266C850.211 431.516 814.551 430.365 778.92 428.812ZM779.109 442.156C779.153 445.451 779.307 455.628 779.322 457.139C814.851 458.441 850.378 459.745 885.906 461.049L885.9 449.49C850.471 445.8 814.844 443.351 779.109 442.156ZM779.352 459.145C779.358 459.811 779.468 467.072 779.465 467.146L885.91 472.777L885.906 463.057C850.386 461.753 814.87 460.449 779.352 459.145Z" fill="#232846"/>
<path d="M402.261 487.159L229.313 493.639C228.062 491.878 227.748 489.67 227.561 487.565C227.66 406.598 227.5 337.464 229.592 265.565C232.103 178.524 236.581 0.0327148 236.581 0.0327148C236.581 0.0327148 348.45 12.8409 398.282 13.4196L402.261 487.159Z" fill="#63638C"/>
<path d="M264.78 24.1152C264.78 24.1152 264.596 34.2971 264.573 35.5059C301.739 37.9588 339.019 39.1606 376.333 39.0566L376.247 31.9043L264.78 24.1152ZM264.538 37.5215C264.52 38.4949 264.423 43.9171 264.395 45.3984C301.697 47.138 339.058 47.9509 376.436 47.8027L376.356 41.0723C339.023 41.1782 301.724 39.9725 264.538 37.5215ZM264.358 47.4199C264.304 50.3324 264.179 57.3962 264.099 61.7227C301.546 63.859 339.079 64.9315 376.64 64.9316L376.46 49.8223C339.061 49.972 301.68 49.1597 264.358 47.4199ZM264.061 63.7402C263.965 68.916 263.885 73.5922 263.765 80.1797C301.425 81.576 339.132 81.9298 376.835 81.2402L376.663 66.9492C339.086 66.9511 301.533 65.8772 264.061 63.7402ZM263.727 82.1973C263.641 86.9466 263.613 88.5542 263.518 93.7969C301.357 95.3886 339.201 96.9806 377.04 98.5723L376.858 83.2539C339.139 83.9457 301.408 83.5938 263.727 82.1973ZM263.481 95.8105C263.363 102.408 263.344 103.159 263.22 110.215C301.219 111.274 339.219 112.334 377.216 113.393L377.063 100.588C339.2 98.9949 301.341 97.4031 263.481 95.8105ZM263.184 112.229C263.032 120.896 262.996 122.821 262.847 131.631C301.038 131.568 339.234 131.502 377.431 131.439L377.241 115.406C339.222 114.347 301.205 113.288 263.184 112.229ZM377.456 133.451C339.245 133.517 301.03 133.581 262.815 133.646C262.723 139.108 262.665 143.443 262.577 148.777C291.645 148.333 320.718 148.06 349.792 148.045C359.071 148.04 368.351 148.071 377.63 148.109L377.456 133.451ZM377.653 150.137C339.282 149.973 300.909 150.22 262.544 150.807C262.474 155.088 262.417 158.898 262.352 163.012C300.827 164.511 339.327 165.579 377.845 166.18L377.653 150.137ZM262.319 165.033C262.232 170.578 262.132 176.555 262.058 181.625C300.708 182.481 339.372 182.875 378.042 182.785L377.868 168.201C339.331 167.601 300.813 166.534 262.319 165.033ZM262.026 183.65C261.956 188.522 261.864 194.015 261.809 198.26C291.046 196.638 320.333 195.8 349.626 195.852C359.152 195.868 368.677 196.021 378.202 196.215L378.065 184.805C339.377 184.896 300.694 184.505 262.026 183.65ZM349.55 197.854C320.273 197.803 291.005 198.677 261.788 200.297C261.732 204.759 261.692 208.556 261.659 212.055C300.574 212.342 339.487 212.633 378.401 212.92L378.226 198.217C368.668 198.022 359.109 197.87 349.55 197.854ZM261.638 214.072C261.571 221.936 261.554 227.647 261.661 228.021L378.608 230.363L378.425 214.936C339.496 214.648 300.567 214.36 261.638 214.072Z" fill="#232846"/>
<path d="M263.461 261.662L263.004 275.867C300.21 276.827 337.455 276.576 374.645 274.994L374.498 261.949L263.461 261.662ZM374.668 277C337.448 278.585 300.178 278.839 262.939 277.877L262.688 285.713C300.051 285.983 337.418 285.347 374.742 283.744L374.668 277ZM374.766 285.744C337.417 287.35 300.019 287.988 262.623 287.717L262.162 302.025C299.757 302.712 337.366 302.344 374.936 300.898L374.766 285.744ZM374.959 302.902C337.36 304.351 299.719 304.715 262.098 304.027L261.568 320.445C299.452 320.414 337.321 319.338 375.119 317.219L374.959 302.902ZM375.141 319.213C337.314 321.335 299.416 322.413 261.504 322.443L261.133 334.023C299.191 334.193 337.253 334.36 375.312 334.529L375.141 319.213ZM261.068 336.037L260.602 350.506C298.893 350.131 337.185 349.756 375.48 349.381L375.336 336.543C337.247 336.374 299.156 336.207 261.068 336.037ZM375.502 351.396C337.181 351.772 298.858 352.146 260.537 352.521L259.908 372.041C298.501 370.525 337.091 369.006 375.684 367.49L375.502 351.396ZM375.705 369.482C337.084 370.999 298.465 372.516 259.844 374.033L259.354 389.312C298.163 387.22 337.006 385.521 375.871 384.191L375.705 369.482ZM375.893 386.18C337.003 387.509 298.131 389.211 259.289 391.305L258.906 403.221C297.964 403.314 337.022 402.946 376.072 402.119L375.893 386.18ZM376.096 404.125C337.019 404.954 297.928 405.321 258.84 405.229L258.303 421.969C297.639 421.416 336.962 420.377 376.26 418.857L376.096 404.125ZM376.283 420.854C336.956 422.375 297.604 423.415 258.238 423.969L257.74 439.412C297.133 435.484 336.733 433.127 376.41 432.238L376.283 420.854ZM376.434 434.227C336.726 435.113 297.094 437.462 257.676 441.408L257.316 452.596C297.073 451.385 336.835 450.178 376.598 448.969L376.434 434.227ZM376.621 450.963C336.834 452.173 297.043 453.381 257.252 454.592L256.902 465.459L376.748 462.275L376.621 450.963Z" fill="#232846"/>
<path d="M609.589 242.916C608.916 242.939 608.238 243.056 607.552 243.281C606.552 243.613 605.857 244.239 605.548 245.275C605.251 246.27 604.817 247.203 604.161 248.051C604.034 247.956 603.908 247.881 603.808 247.779C602.896 246.861 601.786 246.266 600.556 245.92C598.828 245.435 597.18 245.584 595.919 247.059C595.385 247.684 595.021 248.461 594.606 249.184C594.425 249.496 594.31 249.842 594.157 250.188C593.959 250.08 593.831 250.012 593.706 249.939C591.999 248.956 590.484 249.101 589.015 250.449C587.368 251.958 586.097 253.76 585.423 255.881C584.396 259.111 584.091 262.418 584.72 265.76C584.745 265.9 584.752 266.046 584.767 266.188C584.823 266.558 584.905 266.925 584.999 267.291C584.443 266.606 583.809 265.877 582.927 264.84C582.062 263.823 579.858 262.268 579.858 262.268C578.244 260.913 577.375 261.875 576.989 264.346C576.277 268.907 578.186 272.182 579.856 275.871C584.954 287.131 594.676 296.23 610.44 297.797C613.73 298.124 616.442 296.533 619.05 295.225C621.668 293.911 626.909 288.024 629.8 279.963C632.9 271.317 633.404 260.319 627.661 251.281C626.23 249.03 622.585 245.051 621.03 246.531C620.322 247.206 621.409 248.621 621.345 249.939C621.301 250.848 621.469 251.538 621.728 252.266C620.943 250.48 619.565 248.953 618.235 247.455C616.739 245.782 615.104 244.288 612.927 243.498C611.82 243.096 610.711 242.877 609.589 242.916Z" fill="#CC3B67"/>
<path d="M615.383 293.363C615.084 293.471 614.809 293.636 614.573 293.85C614.338 294.063 614.147 294.321 614.012 294.609C613.876 294.896 613.799 295.208 613.784 295.525C613.769 295.843 613.816 296.16 613.924 296.459C617.212 305.616 619.782 314.774 621.822 323.895C621.201 323.157 620.578 322.423 619.883 321.764C618.578 320.53 617.13 319.446 615.77 318.268C614.242 316.944 612.721 315.611 611.236 314.24C608.572 311.778 605.611 309.727 602.492 307.904C600.553 306.769 598.567 305.706 596.566 304.682C595.048 303.905 593.489 303.196 591.914 302.535C590.253 301.835 588.564 301.198 586.865 300.59C584.801 299.852 582.725 299.142 580.635 298.475C576.655 297.205 572.527 296.711 568.369 296.402C567.954 296.371 567.533 296.36 567.121 296.402C566.921 296.422 566.737 296.59 566.545 296.691C566.552 296.771 566.557 296.854 566.564 296.934C566.785 297.073 566.997 297.23 567.23 297.346C568.3 297.882 569.388 298.38 570.447 298.936C574.687 301.165 578.913 303.418 583.152 305.645C584.081 306.132 585.032 306.585 585.996 307.002C588.211 307.959 590.437 308.895 592.668 309.818C594.785 310.694 596.905 311.561 599.039 312.393C601.81 313.473 604.592 314.527 607.377 315.57C609.961 316.535 612.528 317.54 614.986 318.789C615.855 319.23 616.701 319.736 617.498 320.297C618.959 321.328 620.204 322.595 621.334 323.984C621.552 324.251 621.783 324.509 622.018 324.762C633.982 379.147 626.641 432.135 632.1 475.303C632.139 475.618 632.241 475.922 632.398 476.198C632.555 476.474 632.766 476.717 633.017 476.911C633.268 477.106 633.555 477.25 633.861 477.334C634.168 477.418 634.488 477.44 634.803 477.4C635.118 477.361 635.422 477.259 635.698 477.102C635.974 476.945 636.217 476.734 636.411 476.483C636.606 476.232 636.75 475.945 636.834 475.639C636.917 475.333 636.94 475.013 636.9 474.697C630.653 425.287 641.992 360.319 618.477 294.824C618.369 294.525 618.204 294.25 617.991 294.015C617.777 293.78 617.52 293.589 617.232 293.453C616.945 293.317 616.634 293.24 616.316 293.224C615.999 293.209 615.682 293.256 615.383 293.363Z" fill="#63638C"/>
<path d="M654.015 283.174C649.396 283.248 642.742 293.37 643.028 306.594C643.194 314.242 646.559 327.238 657.478 333.018C674.724 342.146 697.005 324.376 698.124 311.752C698.262 310.193 697.351 308.623 695.946 310.564C694.244 312.916 692.515 315.248 690.8 317.59C692.322 313.672 695.44 310.08 692.583 304.824C691.91 303.585 690.256 304.34 688.62 305.074C688.614 305.037 688.609 304.991 688.616 304.932C688.654 304.411 688.69 304.003 688.716 303.592C688.869 301.049 687.996 298.718 687.075 296.434C686.465 294.923 685.207 293.989 683.587 293.676C682.332 293.435 681.078 293.601 679.941 294.18C678.855 294.733 677.83 295.408 676.782 296.035C676.557 296.171 676.347 296.329 676.134 296.471C675.661 295.97 675.229 295.511 674.741 294.992C674.768 294.816 674.806 294.581 674.841 294.342C675.057 292.943 675.342 291.554 675.06 290.119C674.734 288.458 673.497 286.609 671.267 286.377C670.53 286.3 669.77 286.25 668.984 286.275C668.197 286.301 667.386 286.404 666.546 286.631C665.177 287.153 663.883 287.777 662.546 288.766C658.672 287.684 654.51 294.073 651.808 298.787C652.205 296.928 653.462 294.395 654.187 292.037C654.702 290.361 654.825 289.044 655.058 287.633C655.428 285.389 655.822 283.377 654.454 283.199C654.31 283.18 654.164 283.171 654.015 283.174Z" fill="#CC3B67"/>
<path d="M655.653 327.955C655.337 327.922 655.018 327.951 654.713 328.041C654.409 328.131 654.125 328.281 653.878 328.481C653.631 328.681 653.426 328.928 653.274 329.207C620.927 388.847 632.656 432.1 642.639 477.025C642.779 477.652 643.161 478.197 643.702 478.541C644.244 478.885 644.9 479.001 645.526 478.861C646.152 478.722 646.697 478.34 647.042 477.798C647.386 477.257 647.501 476.601 647.362 475.975C639.867 442.249 631.562 410.788 641.112 372.639C641.341 372.436 641.569 372.232 641.805 372.037C643.042 371.016 644.408 370.145 645.743 369.246C646.551 368.7 647.387 368.185 648.249 367.729C651.357 366.089 654.681 364.984 658.053 364.066C665.897 361.932 673.03 358.354 679.54 353.539C685.233 349.328 690.27 344.401 694.887 339.043C695.717 338.081 696.468 337.048 697.241 336.039C697.462 335.751 697.681 335.433 697.424 335.035C696.958 334.902 696.606 335.166 696.258 335.367C694.436 336.42 692.605 337.462 690.813 338.564C686.12 341.45 681.324 344.147 676.389 346.598C672.183 348.686 667.996 350.808 663.901 353.117C657.628 356.651 652.106 361.075 647.442 366.57C646.364 367.84 645.172 368.992 643.768 369.928C642.904 370.504 642.094 371.15 641.319 371.838C644.548 359.235 649.723 345.903 657.528 331.514C657.834 330.95 657.903 330.288 657.721 329.673C657.538 329.058 657.119 328.54 656.555 328.234C656.276 328.083 655.969 327.988 655.653 327.955Z" fill="#63638C"/>
<path d="M615.807 370C614.765 370 613.928 371.053 613.979 372.314C614.074 374.667 614.062 378.679 613.363 383.688H613.361C612.926 386.802 612.223 390.306 611.117 394.039C610.218 397.072 609.056 400.254 607.549 403.506C606.692 405.352 605.961 407.3 605.348 409.33C604.36 412.598 603.678 416.079 603.273 419.684C602.718 424.62 602.682 429.79 603.094 434.975C603.369 438.442 603.842 441.915 604.494 445.328C605.514 450.657 606.968 455.836 608.773 460.619C610.182 464.353 611.807 467.845 613.605 470.973C615.803 474.795 618.26 478.076 620.908 480.596C621.947 481.584 623.227 482.129 624.547 482.129H633.473H651.002C652.323 482.129 653.602 481.584 654.641 480.596C657.29 478.077 659.746 474.796 661.943 470.973C663.741 467.846 665.365 464.353 666.775 460.619C668.58 455.836 670.035 450.655 671.055 445.326C671.708 441.914 672.179 438.442 672.455 434.975C672.866 429.79 672.83 424.62 672.275 419.684C671.869 416.079 671.189 412.598 670.201 409.33C669.587 407.299 668.858 405.352 668.002 403.506C666.494 400.254 665.331 397.072 664.432 394.039C663.326 390.306 662.622 386.802 662.187 383.688C661.487 378.679 661.475 374.668 661.57 372.314C661.621 371.052 660.784 370 659.742 370H648.604H615.807Z" fill="#F5F5F7" fill-opacity="0.4"/>
<path d="M657.236 378.673C648.001 381.5 630.501 381.5 618 378.846C630.982 378.789 643.964 378.732 657.236 378.673Z" fill="#F5F5F7" fill-opacity="0.4"/>
<path d="M655.755 392.958C660.618 406.215 660.431 419.875 659.678 433.277C658.924 446.691 657.1 463.066 650.086 475.79C657.16 466.358 662.197 446.222 662.778 433.222C663.384 419.655 661.896 406.225 655.755 392.958Z" fill="#F5F5F7" fill-opacity="0.8"/>
<path d="M611.268 417C609.178 426.666 610.631 436.124 612.452 445.346C614.274 454.578 617.125 465.76 623.222 473.906C617.402 468.049 611.958 454.57 610.296 445.609C608.561 436.257 608.293 426.797 611.268 417Z" fill="#232846" fill-opacity="0.2"/>
<path d="M455.319 193L450.339 184.45H447.039V193H444.309V172.09H451.059C452.639 172.09 453.969 172.36 455.049 172.9C456.149 173.44 456.969 174.17 457.509 175.09C458.049 176.01 458.319 177.06 458.319 178.24C458.319 179.68 457.899 180.95 457.059 182.05C456.239 183.15 454.999 183.88 453.339 184.24L458.589 193H455.319ZM447.039 182.26H451.059C452.539 182.26 453.649 181.9 454.389 181.18C455.129 180.44 455.499 179.46 455.499 178.24C455.499 177 455.129 176.04 454.389 175.36C453.669 174.68 452.559 174.34 451.059 174.34H447.039V182.26ZM478.011 184.15C478.011 184.67 477.981 185.22 477.921 185.8H464.781C464.881 187.42 465.431 188.69 466.431 189.61C467.451 190.51 468.681 190.96 470.121 190.96C471.301 190.96 472.281 190.69 473.061 190.15C473.861 189.59 474.421 188.85 474.741 187.93H477.681C477.241 189.51 476.361 190.8 475.041 191.8C473.721 192.78 472.081 193.27 470.121 193.27C468.561 193.27 467.161 192.92 465.921 192.22C464.701 191.52 463.741 190.53 463.041 189.25C462.341 187.95 461.991 186.45 461.991 184.75C461.991 183.05 462.331 181.56 463.011 180.28C463.691 179 464.641 178.02 465.861 177.34C467.101 176.64 468.521 176.29 470.121 176.29C471.681 176.29 473.061 176.63 474.261 177.31C475.461 177.99 476.381 178.93 477.021 180.13C477.681 181.31 478.011 182.65 478.011 184.15ZM475.191 183.58C475.191 182.54 474.961 181.65 474.501 180.91C474.041 180.15 473.411 179.58 472.611 179.2C471.831 178.8 470.961 178.6 470.001 178.6C468.621 178.6 467.441 179.04 466.461 179.92C465.501 180.8 464.951 182.02 464.811 183.58H475.191ZM481.044 184.72C481.044 183.04 481.384 181.57 482.064 180.31C482.744 179.03 483.674 178.04 484.854 177.34C486.054 176.64 487.384 176.29 488.844 176.29C490.284 176.29 491.534 176.6 492.594 177.22C493.654 177.84 494.444 178.62 494.964 179.56V176.56H497.724V193H494.964V189.94C494.424 190.9 493.614 191.7 492.534 192.34C491.474 192.96 490.234 193.27 488.814 193.27C487.354 193.27 486.034 192.91 484.854 192.19C483.674 191.47 482.744 190.46 482.064 189.16C481.384 187.86 481.044 186.38 481.044 184.72ZM494.964 184.75C494.964 183.51 494.714 182.43 494.214 181.51C493.714 180.59 493.034 179.89 492.174 179.41C491.334 178.91 490.404 178.66 489.384 178.66C488.364 178.66 487.434 178.9 486.594 179.38C485.754 179.86 485.084 180.56 484.584 181.48C484.084 182.4 483.834 183.48 483.834 184.72C483.834 185.98 484.084 187.08 484.584 188.02C485.084 188.94 485.754 189.65 486.594 190.15C487.434 190.63 488.364 190.87 489.384 190.87C490.404 190.87 491.334 190.63 492.174 190.15C493.034 189.65 493.714 188.94 494.214 188.02C494.714 187.08 494.964 185.99 494.964 184.75ZM501.768 184.72C501.768 183.04 502.108 181.57 502.788 180.31C503.468 179.03 504.398 178.04 505.578 177.34C506.778 176.64 508.118 176.29 509.598 176.29C510.878 176.29 512.068 176.59 513.168 177.19C514.268 177.77 515.108 178.54 515.688 179.5V170.8H518.448V193H515.688V189.91C515.148 190.89 514.348 191.7 513.288 192.34C512.228 192.96 510.988 193.27 509.568 193.27C508.108 193.27 506.778 192.91 505.578 192.19C504.398 191.47 503.468 190.46 502.788 189.16C502.108 187.86 501.768 186.38 501.768 184.72ZM515.688 184.75C515.688 183.51 515.438 182.43 514.938 181.51C514.438 180.59 513.758 179.89 512.898 179.41C512.058 178.91 511.128 178.66 510.108 178.66C509.088 178.66 508.158 178.9 507.318 179.38C506.478 179.86 505.808 180.56 505.308 181.48C504.808 182.4 504.558 183.48 504.558 184.72C504.558 185.98 504.808 187.08 505.308 188.02C505.808 188.94 506.478 189.65 507.318 190.15C508.158 190.63 509.088 190.87 510.108 190.87C511.128 190.87 512.058 190.63 512.898 190.15C513.758 189.65 514.438 188.94 514.938 188.02C515.438 187.08 515.688 185.99 515.688 184.75ZM537.671 176.56L527.771 200.74H524.951L528.191 192.82L521.561 176.56H524.591L529.751 189.88L534.851 176.56H537.671ZM447.639 220.81V230.5C447.639 231.3 447.809 231.87 448.149 232.21C448.489 232.53 449.079 232.69 449.919 232.69H451.929V235H449.469C447.949 235 446.809 234.65 446.049 233.95C445.289 233.25 444.909 232.1 444.909 230.5V220.81H442.779V218.56H444.909V214.42H447.639V218.56H451.929V220.81H447.639ZM462.857 235.27C461.317 235.27 459.917 234.92 458.657 234.22C457.417 233.52 456.437 232.53 455.717 231.25C455.017 229.95 454.667 228.45 454.667 226.75C454.667 225.07 455.027 223.59 455.747 222.31C456.487 221.01 457.487 220.02 458.747 219.34C460.007 218.64 461.417 218.29 462.977 218.29C464.537 218.29 465.947 218.64 467.207 219.34C468.467 220.02 469.457 221 470.177 222.28C470.917 223.56 471.287 225.05 471.287 226.75C471.287 228.45 470.907 229.95 470.147 231.25C469.407 232.53 468.397 233.52 467.117 234.22C465.837 234.92 464.417 235.27 462.857 235.27ZM462.857 232.87C463.837 232.87 464.757 232.64 465.617 232.18C466.477 231.72 467.167 231.03 467.687 230.11C468.227 229.19 468.497 228.07 468.497 226.75C468.497 225.43 468.237 224.31 467.717 223.39C467.197 222.47 466.517 221.79 465.677 221.35C464.837 220.89 463.927 220.66 462.947 220.66C461.947 220.66 461.027 220.89 460.187 221.35C459.367 221.79 458.707 222.47 458.207 223.39C457.707 224.31 457.457 225.43 457.457 226.75C457.457 228.09 457.697 229.22 458.177 230.14C458.677 231.06 459.337 231.75 460.157 232.21C460.977 232.65 461.877 232.87 462.857 232.87ZM482.754 226.72C482.754 225.04 483.094 223.57 483.774 222.31C484.454 221.03 485.384 220.04 486.564 219.34C487.764 218.64 489.104 218.29 490.584 218.29C491.864 218.29 493.054 218.59 494.154 219.19C495.254 219.77 496.094 220.54 496.674 221.5V212.8H499.434V235H496.674V231.91C496.134 232.89 495.334 233.7 494.274 234.34C493.214 234.96 491.974 235.27 490.554 235.27C489.094 235.27 487.764 234.91 486.564 234.19C485.384 233.47 484.454 232.46 483.774 231.16C483.094 229.86 482.754 228.38 482.754 226.72ZM496.674 226.75C496.674 225.51 496.424 224.43 495.924 223.51C495.424 222.59 494.744 221.89 493.884 221.41C493.044 220.91 492.114 220.66 491.094 220.66C490.074 220.66 489.144 220.9 488.304 221.38C487.464 221.86 486.794 222.56 486.294 223.48C485.794 224.4 485.544 225.48 485.544 226.72C485.544 227.98 485.794 229.08 486.294 230.02C486.794 230.94 487.464 231.65 488.304 232.15C489.144 232.63 490.074 232.87 491.094 232.87C492.114 232.87 493.044 232.63 493.884 232.15C494.744 231.65 495.424 230.94 495.924 230.02C496.424 229.08 496.674 227.99 496.674 226.75ZM505.908 215.89C505.388 215.89 504.948 215.71 504.588 215.35C504.228 214.99 504.048 214.55 504.048 214.03C504.048 213.51 504.228 213.07 504.588 212.71C504.948 212.35 505.388 212.17 505.908 212.17C506.408 212.17 506.828 212.35 507.168 212.71C507.528 213.07 507.708 213.51 507.708 214.03C507.708 214.55 507.528 214.99 507.168 215.35C506.828 215.71 506.408 215.89 505.908 215.89ZM507.228 218.56V235H504.498V218.56H507.228ZM518.45 232.48L523.55 218.56H526.46L520.01 235H516.83L510.38 218.56H513.32L518.45 232.48ZM544.597 226.15C544.597 226.67 544.567 227.22 544.507 227.8H531.367C531.467 229.42 532.017 230.69 533.017 231.61C534.037 232.51 535.267 232.96 536.707 232.96C537.887 232.96 538.867 232.69 539.647 232.15C540.447 231.59 541.007 230.85 541.327 229.93H544.267C543.827 231.51 542.947 232.8 541.627 233.8C540.307 234.78 538.667 235.27 536.707 235.27C535.147 235.27 533.747 234.92 532.507 234.22C531.287 233.52 530.327 232.53 529.627 231.25C528.927 229.95 528.577 228.45 528.577 226.75C528.577 225.05 528.917 223.56 529.597 222.28C530.277 221 531.227 220.02 532.447 219.34C533.687 218.64 535.107 218.29 536.707 218.29C538.267 218.29 539.647 218.63 540.847 219.31C542.047 219.99 542.967 220.93 543.607 222.13C544.267 223.31 544.597 224.65 544.597 226.15ZM541.777 225.58C541.777 224.54 541.547 223.65 541.087 222.91C540.627 222.15 539.997 221.58 539.197 221.2C538.417 220.8 537.547 220.6 536.587 220.6C535.207 220.6 534.027 221.04 533.047 221.92C532.087 222.8 531.537 224.02 531.397 225.58H541.777ZM445.719 257.89C445.199 257.89 444.759 257.71 444.399 257.35C444.039 256.99 443.859 256.55 443.859 256.03C443.859 255.51 444.039 255.07 444.399 254.71C444.759 254.35 445.199 254.17 445.719 254.17C446.219 254.17 446.639 254.35 446.979 254.71C447.339 255.07 447.519 255.51 447.519 256.03C447.519 256.55 447.339 256.99 446.979 257.35C446.639 257.71 446.219 257.89 445.719 257.89ZM447.039 260.56V277H444.309V260.56H447.039ZM460.152 260.26C462.152 260.26 463.772 260.87 465.012 262.09C466.252 263.29 466.872 265.03 466.872 267.31V277H464.172V267.7C464.172 266.06 463.762 264.81 462.942 263.95C462.122 263.07 461.002 262.63 459.582 262.63C458.142 262.63 456.992 263.08 456.132 263.98C455.292 264.88 454.872 266.19 454.872 267.91V277H452.142V260.56H454.872V262.9C455.412 262.06 456.142 261.41 457.062 260.95C458.002 260.49 459.032 260.26 460.152 260.26ZM477.121 255.82C479.101 255.82 480.701 256.38 481.921 257.5C483.141 258.62 483.751 260.12 483.751 262C483.751 264.1 483.101 265.66 481.801 266.68C480.501 267.68 478.741 268.18 476.521 268.18L476.431 271.03H474.061L473.941 266.29H474.811C476.791 266.29 478.341 265.99 479.461 265.39C480.581 264.79 481.141 263.66 481.141 262C481.141 260.8 480.781 259.85 480.061 259.15C479.341 258.45 478.371 258.1 477.151 258.1C475.911 258.1 474.931 258.44 474.211 259.12C473.511 259.78 473.161 260.69 473.161 261.85H470.581C470.581 260.65 470.851 259.6 471.391 258.7C471.931 257.78 472.691 257.07 473.671 256.57C474.671 256.07 475.821 255.82 477.121 255.82ZM475.231 277.18C474.711 277.18 474.271 277 473.911 276.64C473.551 276.28 473.371 275.84 473.371 275.32C473.371 274.8 473.551 274.36 473.911 274C474.271 273.64 474.711 273.46 475.231 273.46C475.731 273.46 476.151 273.64 476.491 274C476.851 274.36 477.031 274.8 477.031 275.32C477.031 275.84 476.851 276.28 476.491 276.64C476.151 277 475.731 277.18 475.231 277.18Z" fill="#C5C5DA"/>
<path d="M451.299 319.21C449.839 319.21 448.519 318.96 447.339 318.46C446.179 317.96 445.259 317.24 444.579 316.3C443.899 315.36 443.549 314.25 443.529 312.97H448.029C448.089 313.83 448.389 314.51 448.929 315.01C449.489 315.51 450.249 315.76 451.209 315.76C452.189 315.76 452.959 315.53 453.519 315.07C454.079 314.59 454.359 313.97 454.359 313.21C454.359 312.59 454.169 312.08 453.789 311.68C453.409 311.28 452.929 310.97 452.349 310.75C451.789 310.51 451.009 310.25 450.009 309.97C448.649 309.57 447.539 309.18 446.679 308.8C445.839 308.4 445.109 307.81 444.489 307.03C443.889 306.23 443.589 305.17 443.589 303.85C443.589 302.61 443.899 301.53 444.519 300.61C445.139 299.69 446.009 298.99 447.129 298.51C448.249 298.01 449.529 297.76 450.969 297.76C453.129 297.76 454.879 298.29 456.219 299.35C457.579 300.39 458.329 301.85 458.469 303.73H453.849C453.809 303.01 453.499 302.42 452.919 301.96C452.359 301.48 451.609 301.24 450.669 301.24C449.849 301.24 449.189 301.45 448.689 301.87C448.209 302.29 447.969 302.9 447.969 303.7C447.969 304.26 448.149 304.73 448.509 305.11C448.889 305.47 449.349 305.77 449.889 306.01C450.449 306.23 451.229 306.49 452.229 306.79C453.589 307.19 454.699 307.59 455.559 307.99C456.419 308.39 457.159 308.99 457.779 309.79C458.399 310.59 458.709 311.64 458.709 312.94C458.709 314.06 458.419 315.1 457.839 316.06C457.259 317.02 456.409 317.79 455.289 318.37C454.169 318.93 452.839 319.21 451.299 319.21ZM472.01 302.14C473.99 302.14 475.59 302.77 476.81 304.03C478.03 305.27 478.64 307.01 478.64 309.25V319H474.44V309.82C474.44 308.5 474.11 307.49 473.45 306.79C472.79 306.07 471.89 305.71 470.75 305.71C469.59 305.71 468.67 306.07 467.99 306.79C467.33 307.49 467 308.5 467 309.82V319H462.8V302.38H467V304.45C467.56 303.73 468.27 303.17 469.13 302.77C470.01 302.35 470.97 302.14 472.01 302.14ZM482.004 310.63C482.004 308.95 482.334 307.46 482.994 306.16C483.674 304.86 484.584 303.86 485.724 303.16C486.884 302.46 488.174 302.11 489.594 302.11C490.834 302.11 491.914 302.36 492.834 302.86C493.774 303.36 494.524 303.99 495.084 304.75V302.38H499.314V319H495.084V316.57C494.544 317.35 493.794 318 492.834 318.52C491.894 319.02 490.804 319.27 489.564 319.27C488.164 319.27 486.884 318.91 485.724 318.19C484.584 317.47 483.674 316.46 482.994 315.16C482.334 313.84 482.004 312.33 482.004 310.63ZM495.084 310.69C495.084 309.67 494.884 308.8 494.484 308.08C494.084 307.34 493.544 306.78 492.864 306.4C492.184 306 491.454 305.8 490.674 305.8C489.894 305.8 489.174 305.99 488.514 306.37C487.854 306.75 487.314 307.31 486.894 308.05C486.494 308.77 486.294 309.63 486.294 310.63C486.294 311.63 486.494 312.51 486.894 313.27C487.314 314.01 487.854 314.58 488.514 314.98C489.194 315.38 489.914 315.58 490.674 315.58C491.454 315.58 492.184 315.39 492.864 315.01C493.544 314.61 494.084 314.05 494.484 313.33C494.884 312.59 495.084 311.71 495.084 310.69ZM510.376 302.11C511.616 302.11 512.706 302.36 513.646 302.86C514.586 303.34 515.326 303.97 515.866 304.75V302.38H520.096V319.12C520.096 320.66 519.786 322.03 519.166 323.23C518.546 324.45 517.616 325.41 516.376 326.11C515.136 326.83 513.636 327.19 511.876 327.19C509.516 327.19 507.576 326.64 506.056 325.54C504.556 324.44 503.706 322.94 503.506 321.04H507.676C507.896 321.8 508.366 322.4 509.086 322.84C509.826 323.3 510.716 323.53 511.756 323.53C512.976 323.53 513.966 323.16 514.726 322.42C515.486 321.7 515.866 320.6 515.866 319.12V316.54C515.326 317.32 514.576 317.97 513.616 318.49C512.676 319.01 511.596 319.27 510.376 319.27C508.976 319.27 507.696 318.91 506.536 318.19C505.376 317.47 504.456 316.46 503.776 315.16C503.116 313.84 502.786 312.33 502.786 310.63C502.786 308.95 503.116 307.46 503.776 306.16C504.456 304.86 505.366 303.86 506.506 303.16C507.666 302.46 508.956 302.11 510.376 302.11ZM515.866 310.69C515.866 309.67 515.666 308.8 515.266 308.08C514.866 307.34 514.326 306.78 513.646 306.4C512.966 306 512.236 305.8 511.456 305.8C510.676 305.8 509.956 305.99 509.296 306.37C508.636 306.75 508.096 307.31 507.676 308.05C507.276 308.77 507.076 309.63 507.076 310.63C507.076 311.63 507.276 312.51 507.676 313.27C508.096 314.01 508.636 314.58 509.296 314.98C509.976 315.38 510.696 315.58 511.456 315.58C512.236 315.58 512.966 315.39 513.646 315.01C514.326 314.61 514.866 314.05 515.266 313.33C515.666 312.59 515.866 311.71 515.866 310.69ZM464.709 344.14C466.749 344.14 468.389 344.77 469.629 346.03C470.889 347.27 471.519 349.01 471.519 351.25V361H467.319V351.82C467.319 350.52 466.989 349.53 466.329 348.85C465.669 348.15 464.769 347.8 463.629 347.8C462.489 347.8 461.579 348.15 460.899 348.85C460.239 349.53 459.909 350.52 459.909 351.82V361H455.709V351.82C455.709 350.52 455.379 349.53 454.719 348.85C454.059 348.15 453.159 347.8 452.019 347.8C450.859 347.8 449.939 348.15 449.259 348.85C448.599 349.53 448.269 350.52 448.269 351.82V361H444.069V344.38H448.269V346.39C448.809 345.69 449.499 345.14 450.339 344.74C451.199 344.34 452.139 344.14 453.159 344.14C454.459 344.14 455.619 344.42 456.639 344.98C457.659 345.52 458.449 346.3 459.009 347.32C459.549 346.36 460.329 345.59 461.349 345.01C462.389 344.43 463.509 344.14 464.709 344.14ZM491.855 344.38L481.565 368.86H477.095L480.695 360.58L474.035 344.38H478.745L483.035 355.99L487.385 344.38H491.855ZM448.269 388.96C448.809 388.08 449.509 387.39 450.369 386.89C451.249 386.39 452.249 386.14 453.369 386.14V390.55H452.259C450.939 390.55 449.939 390.86 449.259 391.48C448.599 392.1 448.269 393.18 448.269 394.72V403H444.069V386.38H448.269V388.96ZM472.098 394.33C472.098 394.93 472.058 395.47 471.978 395.95H459.828C459.928 397.15 460.348 398.09 461.088 398.77C461.828 399.45 462.738 399.79 463.818 399.79C465.378 399.79 466.488 399.12 467.148 397.78H471.678C471.198 399.38 470.278 400.7 468.918 401.74C467.558 402.76 465.888 403.27 463.908 403.27C462.308 403.27 460.868 402.92 459.588 402.22C458.328 401.5 457.338 400.49 456.618 399.19C455.918 397.89 455.568 396.39 455.568 394.69C455.568 392.97 455.918 391.46 456.618 390.16C457.318 388.86 458.298 387.86 459.558 387.16C460.818 386.46 462.268 386.11 463.908 386.11C465.488 386.11 466.898 386.45 468.138 387.13C469.398 387.81 470.368 388.78 471.048 390.04C471.748 391.28 472.098 392.71 472.098 394.33ZM467.748 393.13C467.728 392.05 467.338 391.19 466.578 390.55C465.818 389.89 464.888 389.56 463.788 389.56C462.748 389.56 461.868 389.88 461.148 390.52C460.448 391.14 460.018 392.01 459.858 393.13H467.748ZM481.974 403.27C480.614 403.27 479.394 403.03 478.314 402.55C477.234 402.05 476.374 401.38 475.734 400.54C475.114 399.7 474.774 398.77 474.714 397.75H478.944C479.024 398.39 479.334 398.92 479.874 399.34C480.434 399.76 481.124 399.97 481.944 399.97C482.744 399.97 483.364 399.81 483.804 399.49C484.264 399.17 484.494 398.76 484.494 398.26C484.494 397.72 484.214 397.32 483.654 397.06C483.114 396.78 482.244 396.48 481.044 396.16C479.804 395.86 478.784 395.55 477.984 395.23C477.204 394.91 476.524 394.42 475.944 393.76C475.384 393.1 475.104 392.21 475.104 391.09C475.104 390.17 475.364 389.33 475.884 388.57C476.424 387.81 477.184 387.21 478.164 386.77C479.164 386.33 480.334 386.11 481.674 386.11C483.654 386.11 485.234 386.61 486.414 387.61C487.594 388.59 488.244 389.92 488.364 391.6H484.344C484.284 390.94 484.004 390.42 483.504 390.04C483.024 389.64 482.374 389.44 481.554 389.44C480.794 389.44 480.204 389.58 479.784 389.86C479.384 390.14 479.184 390.53 479.184 391.03C479.184 391.59 479.464 392.02 480.024 392.32C480.584 392.6 481.454 392.89 482.634 393.19C483.834 393.49 484.824 393.8 485.604 394.12C486.384 394.44 487.054 394.94 487.614 395.62C488.194 396.28 488.494 397.16 488.514 398.26C488.514 399.22 488.244 400.08 487.704 400.84C487.184 401.6 486.424 402.2 485.424 402.64C484.444 403.06 483.294 403.27 481.974 403.27ZM508.101 386.38V403H503.871V400.9C503.331 401.62 502.621 402.19 501.741 402.61C500.881 403.01 499.941 403.21 498.921 403.21C497.621 403.21 496.471 402.94 495.471 402.4C494.471 401.84 493.681 401.03 493.101 399.97C492.541 398.89 492.261 397.61 492.261 396.13V386.38H496.461V395.53C496.461 396.85 496.791 397.87 497.451 398.59C498.111 399.29 499.011 399.64 500.151 399.64C501.311 399.64 502.221 399.29 502.881 398.59C503.541 397.87 503.871 396.85 503.871 395.53V386.38H508.101ZM533.335 386.14C535.375 386.14 537.015 386.77 538.255 388.03C539.515 389.27 540.145 391.01 540.145 393.25V403H535.945V393.82C535.945 392.52 535.615 391.53 534.955 390.85C534.295 390.15 533.395 389.8 532.255 389.8C531.115 389.8 530.205 390.15 529.525 390.85C528.865 391.53 528.535 392.52 528.535 393.82V403H524.335V393.82C524.335 392.52 524.005 391.53 523.345 390.85C522.685 390.15 521.785 389.8 520.645 389.8C519.485 389.8 518.565 390.15 517.885 390.85C517.225 391.53 516.895 392.52 516.895 393.82V403H512.695V386.38H516.895V388.39C517.435 387.69 518.125 387.14 518.965 386.74C519.825 386.34 520.765 386.14 521.785 386.14C523.085 386.14 524.245 386.42 525.265 386.98C526.285 387.52 527.075 388.3 527.635 389.32C528.175 388.36 528.955 387.59 529.975 387.01C531.015 386.43 532.135 386.14 533.335 386.14ZM560.031 394.33C560.031 394.93 559.991 395.47 559.911 395.95H547.761C547.861 397.15 548.281 398.09 549.021 398.77C549.761 399.45 550.671 399.79 551.751 399.79C553.311 399.79 554.421 399.12 555.081 397.78H559.611C559.131 399.38 558.211 400.7 556.851 401.74C555.491 402.76 553.821 403.27 551.841 403.27C550.241 403.27 548.801 402.92 547.521 402.22C546.261 401.5 545.271 400.49 544.551 399.19C543.851 397.89 543.501 396.39 543.501 394.69C543.501 392.97 543.851 391.46 544.551 390.16C545.251 388.86 546.231 387.86 547.491 387.16C548.751 386.46 550.201 386.11 551.841 386.11C553.421 386.11 554.831 386.45 556.071 387.13C557.331 387.81 558.301 388.78 558.981 390.04C559.681 391.28 560.031 392.71 560.031 394.33ZM555.681 393.13C555.661 392.05 555.271 391.19 554.511 390.55C553.751 389.89 552.821 389.56 551.721 389.56C550.681 389.56 549.801 389.88 549.081 390.52C548.381 391.14 547.951 392.01 547.791 393.13H555.681ZM448.269 430.81C448.809 430.01 449.549 429.36 450.489 428.86C451.449 428.36 452.539 428.11 453.759 428.11C455.179 428.11 456.459 428.46 457.599 429.16C458.759 429.86 459.669 430.86 460.329 432.16C461.009 433.44 461.349 434.93 461.349 436.63C461.349 438.33 461.009 439.84 460.329 441.16C459.669 442.46 458.759 443.47 457.599 444.19C456.459 444.91 455.179 445.27 453.759 445.27C452.519 445.27 451.429 445.03 450.489 444.55C449.569 444.05 448.829 443.41 448.269 442.63V445H444.069V422.8H448.269V430.81ZM457.059 436.63C457.059 435.63 456.849 434.77 456.429 434.05C456.029 433.31 455.489 432.75 454.809 432.37C454.149 431.99 453.429 431.8 452.649 431.8C451.889 431.8 451.169 432 450.489 432.4C449.829 432.78 449.289 433.34 448.869 434.08C448.469 434.82 448.269 435.69 448.269 436.69C448.269 437.69 448.469 438.56 448.869 439.3C449.289 440.04 449.829 440.61 450.489 441.01C451.169 441.39 451.889 441.58 452.649 441.58C453.429 441.58 454.149 441.38 454.809 440.98C455.489 440.58 456.029 440.01 456.429 439.27C456.849 438.53 457.059 437.65 457.059 436.63ZM480.301 436.33C480.301 436.93 480.261 437.47 480.181 437.95H468.031C468.131 439.15 468.551 440.09 469.291 440.77C470.031 441.45 470.941 441.79 472.021 441.79C473.581 441.79 474.691 441.12 475.351 439.78H479.881C479.401 441.38 478.481 442.7 477.121 443.74C475.761 444.76 474.091 445.27 472.111 445.27C470.511 445.27 469.071 444.92 467.791 444.22C466.531 443.5 465.541 442.49 464.821 441.19C464.121 439.89 463.771 438.39 463.771 436.69C463.771 434.97 464.121 433.46 464.821 432.16C465.521 430.86 466.501 429.86 467.761 429.16C469.021 428.46 470.471 428.11 472.111 428.11C473.691 428.11 475.101 428.45 476.341 429.13C477.601 429.81 478.571 430.78 479.251 432.04C479.951 433.28 480.301 434.71 480.301 436.33ZM475.951 435.13C475.931 434.05 475.541 433.19 474.781 432.55C474.021 431.89 473.091 431.56 471.991 431.56C470.951 431.56 470.071 431.88 469.351 432.52C468.651 433.14 468.221 434.01 468.061 435.13H475.951ZM488.017 422.8V445H483.817V422.8H488.017ZM499.996 445.27C498.396 445.27 496.956 444.92 495.676 444.22C494.396 443.5 493.386 442.49 492.646 441.19C491.926 439.89 491.566 438.39 491.566 436.69C491.566 434.99 491.936 433.49 492.676 432.19C493.436 430.89 494.466 429.89 495.766 429.19C497.066 428.47 498.516 428.11 500.116 428.11C501.716 428.11 503.166 428.47 504.466 429.19C505.766 429.89 506.786 430.89 507.526 432.19C508.286 433.49 508.666 434.99 508.666 436.69C508.666 438.39 508.276 439.89 507.496 441.19C506.736 442.49 505.696 443.5 504.376 444.22C503.076 444.92 501.616 445.27 499.996 445.27ZM499.996 441.61C500.756 441.61 501.466 441.43 502.126 441.07C502.806 440.69 503.346 440.13 503.746 439.39C504.146 438.65 504.346 437.75 504.346 436.69C504.346 435.11 503.926 433.9 503.086 433.06C502.266 432.2 501.256 431.77 500.056 431.77C498.856 431.77 497.846 432.2 497.026 433.06C496.226 433.9 495.826 435.11 495.826 436.69C495.826 438.27 496.216 439.49 496.996 440.35C497.796 441.19 498.796 441.61 499.996 441.61ZM535.237 428.38L530.377 445H525.847L522.817 433.39L519.787 445H515.227L510.337 428.38H514.597L517.537 441.04L520.717 428.38H525.157L528.277 441.01L531.217 428.38H535.237ZM543.39 423.7L542.91 438.19H539.37L538.86 423.7H543.39ZM541.23 445.21C540.47 445.21 539.84 444.98 539.34 444.52C538.86 444.04 538.62 443.45 538.62 442.75C538.62 442.05 538.86 441.47 539.34 441.01C539.84 440.53 540.47 440.29 541.23 440.29C541.97 440.29 542.58 440.53 543.06 441.01C543.54 441.47 543.78 442.05 543.78 442.75C543.78 443.45 543.54 444.04 543.06 444.52C542.58 444.98 541.97 445.21 541.23 445.21Z" fill="#F5F5F7"/>
<path d="M591.635 279.488C586.29 268.403 586.605 269.168 582.925 264.84C582.061 263.823 579.857 262.267 579.857 262.267C578.243 260.913 577.373 261.874 576.987 264.345C576.275 268.907 578.185 272.183 579.855 275.872C584.952 287.132 594.674 296.23 610.439 297.797C613.728 298.124 616.441 296.532 619.049 295.224C621.668 293.91 626.907 288.025 629.798 279.964C632.898 271.318 633.402 260.319 627.659 251.282C626.229 249.03 622.584 245.051 621.028 246.531C620.32 247.205 621.406 248.62 621.342 249.939C621.281 251.211 621.627 252.054 622.069 253.173L625.383 261.574C622.789 256.905 616.286 246.409 607.767 249.424C605.924 250.076 606.866 252.307 606.777 253.36C606.425 257.524 609.101 260.025 610.439 263.257C605.12 258.269 598.967 252.212 592.13 260.486C591.055 261.786 590.221 262.667 589.834 263.998C588.25 269.441 590.685 274.744 591.635 279.488Z" fill="#FA4A7F"/>
<path d="M657.478 333.018C646.559 327.238 643.194 314.242 643.028 306.593C642.733 292.942 649.833 282.599 654.455 283.199C655.823 283.376 655.429 285.389 655.058 287.634C654.825 289.045 654.702 290.361 654.187 292.038C653.463 294.395 652.205 296.927 651.808 298.787C654.51 294.073 658.672 287.685 662.546 288.766C664.652 289.354 663.651 295.691 662.001 298.787C665.255 296.151 672.546 293.256 674.966 295.422C679.087 299.108 677.511 310.222 674.867 314.918C677.894 311.324 680.543 307.516 686.744 305.813C688.791 305.251 691.642 303.093 692.583 304.824C695.439 310.08 692.323 313.672 690.801 317.591C692.517 315.248 694.245 312.916 695.948 310.564C697.353 308.623 698.263 310.192 698.125 311.751C697.006 324.375 674.724 342.146 657.478 333.018Z" fill="#FA4A7F"/>
</g>
<defs>
<clipPath id="clip0_833_3550">
<rect width="1190" height="528" fill="white"/>
</clipPath>
</defs>
</svg>
